  0
SECTION
  2
HEADER
  9
$ACADVER
  1
AC1024
  9
$ACADMAINTVER
 70
6
  9
$DWGCODEPAGE
  3
ANSI_1252
  9
$LASTSAVEDBY
  1
ezdxf
  9
$INSBASE
 10
0.0
 20
0.0
 30
0.0
  9
$EXTMIN
 10
1e+20
 20
1e+20
 30
1e+20
  9
$EXTMAX
 10
-1e+20
 20
-1e+20
 30
-1e+20
  9
$LIMMIN
 10
0.0
 20
0.0
  9
$LIMMAX
 10
420.0
 20
297.0
  9
$ORTHOMODE
 70
0
  9
$REGENMODE
 70
1
  9
$FILLMODE
 70
1
  9
$QTEXTMODE
 70
0
  9
$MIRRTEXT
 70
1
  9
$LTSCALE
 40
1.0
  9
$ATTMODE
 70
1
  9
$TEXTSIZE
 40
2.5
  9
$TRACEWID
 40
1.0
  9
$TEXTSTYLE
  7
OpenSans
  9
$CLAYER
  8
0
  9
$CELTYPE
  6
ByLayer
  9
$CECOLOR
 62
256
  9
$CELTSCALE
 40
1.0
  9
$DISPSILH
 70
0
  9
$DIMSCALE
 40
1.0
  9
$DIMASZ
 40
0.175
  9
$DIMEXO
 40
0.125
  9
$DIMDLI
 40
3.75
  9
$DIMRND
 40
0.0
  9
$DIMDLE
 40
0.0
  9
$DIMEXE
 40
0.375
  9
$DIMTP
 40
0.0
  9
$DIMTM
 40
0.0
  9
$DIMTXT
 40
0.25
  9
$DIMCEN
 40
2.5
  9
$DIMTSZ
 40
0.0
  9
$DIMTOL
 70
0
  9
$DIMLIM
 70
0
  9
$DIMTIH
 70
0
  9
$DIMTOH
 70
0
  9
$DIMSE1
 70
0
  9
$DIMSE2
 70
0
  9
$DIMTAD
 70
1
  9
$DIMZIN
 70
12
  9
$DIMBLK
  1
ARCHTICK
  9
$DIMASO
 70
1
  9
$DIMSHO
 70
1
  9
$DIMPOST
  1

  9
$DIMAPOST
  1

  9
$DIMALT
 70
0
  9
$DIMALTD
 70
3
  9
$DIMALTF
 40
0.03937007874
  9
$DIMLFAC
 40
100.0
  9
$DIMTOFL
 70
1
  9
$DIMTVP
 40
0.0
  9
$DIMTIX
 70
0
  9
$DIMSOXD
 70
0
  9
$DIMSAH
 70
0
  9
$DIMBLK1
  1

  9
$DIMBLK2
  1

  9
$DIMSTYLE
  2
EZDXF
  9
$DIMCLRD
 70
0
  9
$DIMCLRE
 70
0
  9
$DIMCLRT
 70
0
  9
$DIMTFAC
 40
0.5
  9
$DIMGAP
 40
0.1
  9
$DIMJUST
 70
0
  9
$DIMSD1
 70
0
  9
$DIMSD2
 70
0
  9
$DIMTOLJ
 70
0
  9
$DIMTZIN
 70
8
  9
$DIMALTZ
 70
0
  9
$DIMALTTZ
 70
0
  9
$DIMUPT
 70
1
  9
$DIMDEC
 70
2
  9
$DIMTDEC
 70
2
  9
$DIMALTU
 70
2
  9
$DIMALTTD
 70
3
  9
$DIMTXSTY
  7
OpenSansCondensed-Light
  9
$DIMAUNIT
 70
0
  9
$DIMADEC
 70
2
  9
$DIMALTRND
 40
0.0
  9
$DIMAZIN
 70
3
  9
$DIMDSEP
 70
46
  9
$DIMATFIT
 70
3
  9
$DIMFRAC
 70
0
  9
$DIMLDRBLK
  1

  9
$DIMLUNIT
 70
2
  9
$DIMLWD
 70
-2
  9
$DIMLWE
 70
-2
  9
$DIMTMOVE
 70
2
  9
$DIMFXL
 40
1.0
  9
$DIMFXLON
 70
0
  9
$DIMJOGANG
 40
0.785398163397
  9
$DIMTFILL
 70
0
  9
$DIMTFILLCLR
 70
0
  9
$DIMARCSYM
 70
0
  9
$DIMLTYPE
  6

  9
$DIMLTEX1
  6

  9
$DIMLTEX2
  6

  9
$DIMTXTDIRECTION
 70
0
  9
$LUNITS
 70
2
  9
$LUPREC
 70
4
  9
$SKETCHINC
 40
1.0
  9
$FILLETRAD
 40
10.0
  9
$AUNITS
 70
0
  9
$AUPREC
 70
2
  9
$MENU
  1
.
  9
$ELEVATION
 40
0.0
  9
$PELEVATION
 40
0.0
  9
$THICKNESS
 40
0.0
  9
$LIMCHECK
 70
0
  9
$CHAMFERA
 40
0.0
  9
$CHAMFERB
 40
0.0
  9
$CHAMFERC
 40
0.0
  9
$CHAMFERD
 40
0.0
  9
$SKPOLY
 70
0
  9
$TDCREATE
 40
2461198.980902778
  9
$TDUCREATE
 40
2458532.153996898
  9
$TDUPDATE
 40
2461198.980902778
  9
$TDUUPDATE
 40
2458532.1544311
  9
$TDINDWG
 40
0.0
  9
$TDUSRTIMER
 40
0.0
  9
$USRTIMER
 70
1
  9
$ANGBASE
 50
0.0
  9
$ANGDIR
 70
0
  9
$PDMODE
 70
0
  9
$PDSIZE
 40
0.0
  9
$PLINEWID
 40
0.0
  9
$SPLFRAME
 70
0
  9
$SPLINETYPE
 70
6
  9
$SPLINESEGS
 70
8
  9
$HANDSEED
  5
1A6
  9
$SURFTAB1
 70
6
  9
$SURFTAB2
 70
6
  9
$SURFTYPE
 70
6
  9
$SURFU
 70
6
  9
$SURFV
 70
6
  9
$UCSBASE
  2

  9
$UCSNAME
  2

  9
$UCSORG
 10
0.0
 20
0.0
 30
0.0
  9
$UCSXDIR
 10
1.0
 20
0.0
 30
0.0
  9
$UCSYDIR
 10
0.0
 20
1.0
 30
0.0
  9
$UCSORTHOREF
  2

  9
$UCSORTHOVIEW
 70
0
  9
$UCSORGTOP
 10
0.0
 20
0.0
 30
0.0
  9
$UCSORGBOTTOM
 10
0.0
 20
0.0
 30
0.0
  9
$UCSORGLEFT
 10
0.0
 20
0.0
 30
0.0
  9
$UCSORGRIGHT
 10
0.0
 20
0.0
 30
0.0
  9
$UCSORGFRONT
 10
0.0
 20
0.0
 30
0.0
  9
$UCSORGBACK
 10
0.0
 20
0.0
 30
0.0
  9
$PUCSBASE
  2

  9
$PUCSNAME
  2

  9
$PUCSORG
 10
0.0
 20
0.0
 30
0.0
  9
$PUCSXDIR
 10
1.0
 20
0.0
 30
0.0
  9
$PUCSYDIR
 10
0.0
 20
1.0
 30
0.0
  9
$PUCSORTHOREF
  2

  9
$PUCSORTHOVIEW
 70
0
  9
$PUCSORGTOP
 10
0.0
 20
0.0
 30
0.0
  9
$PUCSORGBOTTOM
 10
0.0
 20
0.0
 30
0.0
  9
$PUCSORGLEFT
 10
0.0
 20
0.0
 30
0.0
  9
$PUCSORGRIGHT
 10
0.0
 20
0.0
 30
0.0
  9
$PUCSORGFRONT
 10
0.0
 20
0.0
 30
0.0
  9
$PUCSORGBACK
 10
0.0
 20
0.0
 30
0.0
  9
$USERI1
 70
0
  9
$USERI2
 70
0
  9
$USERI3
 70
0
  9
$USERI4
 70
0
  9
$USERI5
 70
0
  9
$USERR1
 40
0.0
  9
$USERR2
 40
0.0
  9
$USERR3
 40
0.0
  9
$USERR4
 40
0.0
  9
$USERR5
 40
0.0
  9
$WORLDVIEW
 70
1
  9
$SHADEDGE
 70
3
  9
$SHADEDIF
 70
70
  9
$TILEMODE
 70
1
  9
$MAXACTVP
 70
64
  9
$PINSBASE
 10
0.0
 20
0.0
 30
0.0
  9
$PLIMCHECK
 70
0
  9
$PEXTMIN
 10
1e+20
 20
1e+20
 30
1e+20
  9
$PEXTMAX
 10
-1e+20
 20
-1e+20
 30
-1e+20
  9
$PLIMMIN
 10
0.0
 20
0.0
  9
$PLIMMAX
 10
420.0
 20
297.0
  9
$UNITMODE
 70
0
  9
$VISRETAIN
 70
1
  9
$PLINEGEN
 70
0
  9
$PSLTSCALE
 70
1
  9
$TREEDEPTH
 70
3020
  9
$CMLSTYLE
  2
Standard
  9
$CMLJUST
 70
0
  9
$CMLSCALE
 40
20.0
  9
$PROXYGRAPHICS
 70
1
  9
$MEASUREMENT
 70
1
  9
$CELWEIGHT
370
-1
  9
$ENDCAPS
280
0
  9
$JOINSTYLE
280
0
  9
$LWDISPLAY
290
0
  9
$INSUNITS
 70
4
  9
$HYPERLINKBASE
  1

  9
$STYLESHEET
  1

  9
$XEDIT
290
1
  9
$CEPSNTYPE
380
0
  9
$PSTYLEMODE
290
1
  9
$FINGERPRINTGUID
  2
{7CA57F10-486B-4A4C-B1B1-F3DE968BAF05}
  9
$VERSIONGUID
  2
{F2775D13-6B87-418A-94ED-24A382120505}
  9
$EXTNAMES
290
1
  9
$PSVPSCALE
 40
0.0
  9
$OLESTARTUP
290
0
  9
$SORTENTS
280
127
  9
$INDEXCTL
280
0
  9
$HIDETEXT
280
1
  9
$XCLIPFRAME
280
1
  9
$HALOGAP
280
0
  9
$OBSCOLOR
 70
257
  9
$OBSLTYPE
280
0
  9
$INTERSECTIONDISPLAY
280
0
  9
$INTERSECTIONCOLOR
 70
257
  9
$DIMASSOC
280
2
  9
$PROJECTNAME
  1

  9
$CAMERADISPLAY
290
0
  9
$LENSLENGTH
 40
50.0
  9
$CAMERAHEIGHT
 40
0.0
  9
$STEPSPERSEC
 40
24.0
  9
$STEPSIZE
 40
100.0
  9
$3DDWFPREC
 40
2.0
  9
$PSOLWIDTH
 40
0.005
  9
$PSOLHEIGHT
 40
0.08
  9
$LOFTANG1
 40
1.570796326795
  9
$LOFTANG2
 40
1.570796326795
  9
$LOFTMAG1
 40
0.0
  9
$LOFTMAG2
 40
0.0
  9
$LOFTPARAM
 70
7
  9
$LOFTNORMALS
280
1
  9
$LATITUDE
 40
37.795
  9
$LONGITUDE
 40
-122.394
  9
$NORTHDIRECTION
 40
0.0
  9
$TIMEZONE
 70
-8000
  9
$LIGHTGLYPHDISPLAY
280
1
  9
$TILEMODELIGHTSYNCH
280
1
  9
$CMATERIAL
347
20
  9
$SOLIDHIST
280
0
  9
$SHOWHIST
280
1
  9
$DWFFRAME
280
2
  9
$DGNFRAME
280
2
  9
$REALWORLDSCALE
290
1
  9
$INTERFERECOLOR
 62
256
  9
$CSHADOW
280
0
  9
$SHADOWPLANELOCATION
 40
0.0
  0
ENDSEC
  0
SECTION
  2
CLASSES
  0
CLASS
  1
ACDBDICTIONARYWDFLT
  2
AcDbDictionaryWithDefault
  3
ObjectDBX Classes
 90
0
 91
0
280
0
281
0
  0
CLASS
  1
SUN
  2
AcDbSun
  3
SCENEOE
 90
1153
 91
0
280
0
281
0
  0
CLASS
  1
VISUALSTYLE
  2
AcDbVisualStyle
  3
ObjectDBX Classes
 90
4095
 91
0
280
0
281
0
  0
CLASS
  1
MATERIAL
  2
AcDbMaterial
  3
ObjectDBX Classes
 90
1153
 91
0
280
0
281
0
  0
CLASS
  1
SCALE
  2
AcDbScale
  3
ObjectDBX Classes
 90
1153
 91
0
280
0
281
0
  0
CLASS
  1
TABLESTYLE
  2
AcDbTableStyle
  3
ObjectDBX Classes
 90
4095
 91
0
280
0
281
0
  0
CLASS
  1
MLEADERSTYLE
  2
AcDbMLeaderStyle
  3
ACDB_MLEADERSTYLE_CLASS
 90
4095
 91
0
280
0
281
0
  0
CLASS
  1
DICTIONARYVAR
  2
AcDbDictionaryVar
  3
ObjectDBX Classes
 90
0
 91
0
280
0
281
0
  0
CLASS
  1
CELLSTYLEMAP
  2
AcDbCellStyleMap
  3
ObjectDBX Classes
 90
1152
 91
0
280
0
281
0
  0
CLASS
  1
MENTALRAYRENDERSETTINGS
  2
AcDbMentalRayRenderSettings
  3
SCENEOE
 90
1024
 91
0
280
0
281
0
  0
CLASS
  1
ACDBDETAILVIEWSTYLE
  2
AcDbDetailViewStyle
  3
ObjectDBX Classes
 90
1025
 91
0
280
0
281
0
  0
CLASS
  1
ACDBSECTIONVIEWSTYLE
  2
AcDbSectionViewStyle
  3
ObjectDBX Classes
 90
1025
 91
0
280
0
281
0
  0
CLASS
  1
RASTERVARIABLES
  2
AcDbRasterVariables
  3
ISM
 90
0
 91
0
280
0
281
0
  0
CLASS
  1
LAYOUT
  2
AcDbLayout
  3
ObjectDBX Classes
 90
0
 91
0
280
0
281
0
  0
CLASS
  1
ACDBPLACEHOLDER
  2
AcDbPlaceHolder
  3
ObjectDBX Classes
 90
0
 91
0
280
0
281
0
  0
ENDSEC
  0
SECTION
  2
TABLES
  0
TABLE
  2
VPORT
  5
8
330
0
100
AcDbSymbolTable
 70
1
  0
VPORT
  5
23
330
8
100
AcDbSymbolTableRecord
100
AcDbViewportTableRecord
  2
*Active
 70
0
 10
0.0
 20
0.0
 11
1.0
 21
1.0
 12
0.0
 22
0.0
 13
0.0
 23
0.0
 14
0.5
 24
0.5
 15
0.5
 25
0.5
 16
0.0
 26
0.0
 36
1.0
 17
0.0
 27
0.0
 37
0.0
 40
1000.0
 41
1.34
 42
50.0
 43
0.0
 44
0.0
 50
0.0
 51
0.0
 71
0
 72
1000
 73
1
 74
3
 75
0
 76
0
 77
0
 78
0
281
0
 65
0
146
0.0
  0
ENDTAB
  0
TABLE
  2
LTYPE
  5
2
330
0
100
AcDbSymbolTable
 70
21
  0
LTYPE
  5
24
330
2
100
AcDbSymbolTableRecord
100
AcDbLinetypeTableRecord
  2
ByBlock
 70
0
  3

 72
65
 73
0
 40
0.0
  0
LTYPE
  5
25
330
2
100
AcDbSymbolTableRecord
100
AcDbLinetypeTableRecord
  2
ByLayer
 70
0
  3

 72
65
 73
0
 40
0.0
  0
LTYPE
  5
26
330
2
100
AcDbSymbolTableRecord
100
AcDbLinetypeTableRecord
  2
Continuous
 70
0
  3

 72
65
 73
0
 40
0.0
  0
LTYPE
  5
2F
330
2
100
AcDbSymbolTableRecord
100
AcDbLinetypeTableRecord
  2
CENTER
 70
0
  3
Center ____ _ ____ _ ____ _ ____ _ ____ _ ____
 72
65
 73
4
 40
5.08
 49
3.175
 74
0
 49
-0.635
 74
0
 49
0.635
 74
0
 49
-0.635
 74
0
  0
LTYPE
  5
30
330
2
100
AcDbSymbolTableRecord
100
AcDbLinetypeTableRecord
  2
CENTERX2
 70
0
  3
Center (2x) ________  __  ________  __  ________
 72
65
 73
4
 40
8.89
 49
6.35
 74
0
 49
-0.635
 74
0
 49
1.27
 74
0
 49
-0.635
 74
0
  0
LTYPE
  5
31
330
2
100
AcDbSymbolTableRecord
100
AcDbLinetypeTableRecord
  2
CENTER2
 70
0
  3
Center (.5x) ____ _ ____ _ ____ _ ____ _ ____
 72
65
 73
4
 40
2.54
 49
1.587
 74
0
 49
-0.318
 74
0
 49
0.318
 74
0
 49
-0.318
 74
0
  0
LTYPE
  5
32
330
2
100
AcDbSymbolTableRecord
100
AcDbLinetypeTableRecord
  2
DASHED
 70
0
  3
Dashed __ __ __ __ __ __ __ __ __ __ __ __ __ _
 72
65
 73
2
 40
1.524
 49
1.27
 74
0
 49
-0.254
 74
0
  0
LTYPE
  5
33
330
2
100
AcDbSymbolTableRecord
100
AcDbLinetypeTableRecord
  2
DASHEDX2
 70
0
  3
Dashed (2x) ____  ____  ____  ____  ____  ____
 72
65
 73
2
 40
3.048
 49
2.54
 74
0
 49
-0.508
 74
0
  0
LTYPE
  5
34
330
2
100
AcDbSymbolTableRecord
100
AcDbLinetypeTableRecord
  2
DASHED2
 70
0
  3
Dashed (.5x) _ _ _ _ _ _ _ _ _ _ _ _ _ _
 72
65
 73
2
 40
0.762
 49
0.635
 74
0
 49
-0.127
 74
0
  0
LTYPE
  5
35
330
2
100
AcDbSymbolTableRecord
100
AcDbLinetypeTableRecord
  2
PHANTOM
 70
0
  3
Phantom ______  __  __  ______  __  __  ______
 72
65
 73
6
 40
6.35
 49
3.175
 74
0
 49
-0.635
 74
0
 49
0.635
 74
0
 49
-0.635
 74
0
 49
0.635
 74
0
 49
-0.635
 74
0
  0
LTYPE
  5
36
330
2
100
AcDbSymbolTableRecord
100
AcDbLinetypeTableRecord
  2
PHANTOMX2
 70
0
  3
Phantom (2x)____________    ____    ____    ____________
 72
65
 73
6
 40
10.795
 49
6.35
 74
0
 49
-0.635
 74
0
 49
1.27
 74
0
 49
-0.635
 74
0
 49
1.27
 74
0
 49
-0.635
 74
0
  0
LTYPE
  5
37
330
2
100
AcDbSymbolTableRecord
100
AcDbLinetypeTableRecord
  2
PHANTOM2
 70
0
  3
Phantom (.5x) ___ _ _ ___ _ _ ___ _ _ ___ _ _ ___
 72
65
 73
6
 40
3.175
 49
1.587
 74
0
 49
-0.318
 74
0
 49
0.318
 74
0
 49
-0.318
 74
0
 49
0.318
 74
0
 49
-0.318
 74
0
  0
LTYPE
  5
38
330
2
100
AcDbSymbolTableRecord
100
AcDbLinetypeTableRecord
  2
DASHDOT
 70
0
  3
Dash dot __ . __ . __ . __ . __ . __ . __ . __
 72
65
 73
4
 40
3.556
 49
2.54
 74
0
 49
-0.508
 74
0
 49
0.0
 74
0
 49
-0.508
 74
0
  0
LTYPE
  5
39
330
2
100
AcDbSymbolTableRecord
100
AcDbLinetypeTableRecord
  2
DASHDOTX2
 70
0
  3
Dash dot (2x) ____  .  ____  .  ____  .  ____
 72
65
 73
4
 40
6.096
 49
5.08
 74
0
 49
-0.508
 74
0
 49
0.0
 74
0
 49
-0.508
 74
0
  0
LTYPE
  5
3A
330
2
100
AcDbSymbolTableRecord
100
AcDbLinetypeTableRecord
  2
DASHDOT2
 70
0
  3
Dash dot (.5x) _ . _ . _ . _ . _ . _ . _ . _
 72
65
 73
4
 40
1.778
 49
1.27
 74
0
 49
-0.254
 74
0
 49
0.0
 74
0
 49
-0.254
 74
0
  0
LTYPE
  5
3B
330
2
100
AcDbSymbolTableRecord
100
AcDbLinetypeTableRecord
  2
DOT
 70
0
  3
Dot .  .  .  .  .  .  .  .  .  .  .  .  .  .  .  .
 72
65
 73
2
 40
0.508
 49
0.0
 74
0
 49
-0.508
 74
0
  0
LTYPE
  5
3C
330
2
100
AcDbSymbolTableRecord
100
AcDbLinetypeTableRecord
  2
DOTX2
 70
0
  3
Dot (2x) .    .    .    .    .    .    .    . 
 72
65
 73
2
 40
1.016
 49
0.0
 74
0
 49
-1.016
 74
0
  0
LTYPE
  5
3D
330
2
100
AcDbSymbolTableRecord
100
AcDbLinetypeTableRecord
  2
DOT2
 70
0
  3
Dot (.5) . . . . . . . . . . . . . . . . . . . 
 72
65
 73
2
 40
0.254
 49
0.0
 74
0
 49
-0.254
 74
0
  0
LTYPE
  5
3E
330
2
100
AcDbSymbolTableRecord
100
AcDbLinetypeTableRecord
  2
DIVIDE
 70
0
  3
Divide __ . . __ . . __ . . __ . . __ . . __
 72
65
 73
6
 40
4.064
 49
2.54
 74
0
 49
-0.508
 74
0
 49
0.0
 74
0
 49
-0.508
 74
0
 49
0.0
 74
0
 49
-0.508
 74
0
  0
LTYPE
  5
3F
330
2
100
AcDbSymbolTableRecord
100
AcDbLinetypeTableRecord
  2
DIVIDEX2
 70
0
  3
Divide (2x) ____  . .  ____  . .  ____  . .  ____
 72
65
 73
6
 40
6.604
 49
5.08
 74
0
 49
-0.508
 74
0
 49
0.0
 74
0
 49
-0.508
 74
0
 49
0.0
 74
0
 49
-0.508
 74
0
  0
LTYPE
  5
40
330
2
100
AcDbSymbolTableRecord
100
AcDbLinetypeTableRecord
  2
DIVIDE2
 70
0
  3
Divide(.5x) _ . _ . _ . _ . _ . _ . _ . _
 72
65
 73
6
 40
2.032
 49
1.27
 74
0
 49
-0.254
 74
0
 49
0.0
 74
0
 49
-0.254
 74
0
 49
0.0
 74
0
 49
-0.254
 74
0
  0
ENDTAB
  0
TABLE
  2
LAYER
  5
1
330
0
100
AcDbSymbolTable
 70
9
  0
LAYER
  5
27
330
1
100
AcDbSymbolTableRecord
100
AcDbLayerTableRecord
  2
0
 70
0
 62
7
  6
Continuous
370
-3
390
13
347
21
  0
LAYER
  5
28
330
1
100
AcDbSymbolTableRecord
100
AcDbLayerTableRecord
  2
Defpoints
 70
0
 62
7
  6
Continuous
290
0
370
-3
390
13
347
21
  0
LAYER
  5
8A
330
1
100
AcDbSymbolTableRecord
100
AcDbLayerTableRecord
  2
HULL
 70
0
 62
7
  6
Continuous
370
-3
390
13
347
21
  0
LAYER
  5
8B
330
1
100
AcDbSymbolTableRecord
100
AcDbLayerTableRecord
  2
BULKHEAD
 70
0
 62
1
  6
Continuous
370
-3
390
13
347
21
  0
LAYER
  5
8C
330
1
100
AcDbSymbolTableRecord
100
AcDbLayerTableRecord
  2
CENTERLINE
 70
0
 62
2
  6
CENTER
370
-3
390
13
347
21
  0
LAYER
  5
8D
330
1
100
AcDbSymbolTableRecord
100
AcDbLayerTableRecord
  2
DIMENSION
 70
0
 62
3
  6
Continuous
370
-3
390
13
347
21
  0
LAYER
  5
8E
330
1
100
AcDbSymbolTableRecord
100
AcDbLayerTableRecord
  2
TEXT
 70
0
 62
7
  6
Continuous
370
-3
390
13
347
21
  0
LAYER
  5
8F
330
1
100
AcDbSymbolTableRecord
100
AcDbLayerTableRecord
  2
ANNOTATION
 70
0
 62
4
  6
Continuous
370
-3
390
13
347
21
  0
LAYER
  5
90
330
1
100
AcDbSymbolTableRecord
100
AcDbLayerTableRecord
  2
HIDDEN
 70
0
 62
8
  6
HIDDEN
370
-3
390
13
347
21
  0
ENDTAB
  0
TABLE
  2
STYLE
  5
5
330
0
100
AcDbSymbolTable
 70
28
  0
STYLE
  5
29
330
5
100
AcDbSymbolTableRecord
100
AcDbTextStyleTableRecord
  2
Standard
 70
0
 40
0.0
 41
1.0
 50
0.0
 71
0
 42
2.5
  3
txt
  4

  0
STYLE
  5
41
330
5
100
AcDbSymbolTableRecord
100
AcDbTextStyleTableRecord
  2
OpenSans-Light
 70
0
 40
0.0
 41
1.0
 50
0.0
 71
0
 42
2.5
  3
OpenSans-Light.ttf
  4

  0
STYLE
  5
42
330
5
100
AcDbSymbolTableRecord
100
AcDbTextStyleTableRecord
  2
OpenSans-Light-Italic
 70
0
 40
0.0
 41
1.0
 50
0.0
 71
0
 42
2.5
  3
OpenSans-LightItalic.ttf
  4

  0
STYLE
  5
43
330
5
100
AcDbSymbolTableRecord
100
AcDbTextStyleTableRecord
  2
OpenSans
 70
0
 40
0.0
 41
1.0
 50
0.0
 71
0
 42
2.5
  3
OpenSans-Regular.ttf
  4

  0
STYLE
  5
44
330
5
100
AcDbSymbolTableRecord
100
AcDbTextStyleTableRecord
  2
OpenSans-Italic
 70
0
 40
0.0
 41
1.0
 50
0.0
 71
0
 42
2.5
  3
OpenSans-Italic.ttf
  4

  0
STYLE
  5
45
330
5
100
AcDbSymbolTableRecord
100
AcDbTextStyleTableRecord
  2
OpenSans-SemiBold
 70
0
 40
0.0
 41
1.0
 50
0.0
 71
0
 42
2.5
  3
OpenSans-SemiBold.ttf
  4

  0
STYLE
  5
46
330
5
100
AcDbSymbolTableRecord
100
AcDbTextStyleTableRecord
  2
OpenSans-SemiBoldItalic
 70
0
 40
0.0
 41
1.0
 50
0.0
 71
0
 42
2.5
  3
OpenSans-SemiBoldItalic.ttf
  4

  0
STYLE
  5
47
330
5
100
AcDbSymbolTableRecord
100
AcDbTextStyleTableRecord
  2
OpenSans-Bold
 70
0
 40
0.0
 41
1.0
 50
0.0
 71
0
 42
2.5
  3
OpenSans-Bold.ttf
  4

  0
STYLE
  5
48
330
5
100
AcDbSymbolTableRecord
100
AcDbTextStyleTableRecord
  2
OpenSans-BoldItalic
 70
0
 40
0.0
 41
1.0
 50
0.0
 71
0
 42
2.5
  3
OpenSans-BoldItalic.ttf
  4

  0
STYLE
  5
49
330
5
100
AcDbSymbolTableRecord
100
AcDbTextStyleTableRecord
  2
OpenSans-ExtraBold
 70
0
 40
0.0
 41
1.0
 50
0.0
 71
0
 42
2.5
  3
OpenSans-ExtraBold.ttf
  4

  0
STYLE
  5
4A
330
5
100
AcDbSymbolTableRecord
100
AcDbTextStyleTableRecord
  2
OpenSans-ExtraBoldItalic
 70
0
 40
0.0
 41
1.0
 50
0.0
 71
0
 42
2.5
  3
OpenSans-ExtraBoldItalic.ttf
  4

  0
STYLE
  5
4B
330
5
100
AcDbSymbolTableRecord
100
AcDbTextStyleTableRecord
  2
OpenSansCondensed-Bold
 70
0
 40
0.0
 41
1.0
 50
0.0
 71
0
 42
2.5
  3
OpenSansCondensed-Bold.ttf
  4

  0
STYLE
  5
4C
330
5
100
AcDbSymbolTableRecord
100
AcDbTextStyleTableRecord
  2
OpenSansCondensed-Light
 70
0
 40
0.0
 41
1.0
 50
0.0
 71
0
 42
2.5
  3
OpenSansCondensed-Light.ttf
  4

  0
STYLE
  5
4D
330
5
100
AcDbSymbolTableRecord
100
AcDbTextStyleTableRecord
  2
OpenSansCondensed-Italic
 70
0
 40
0.0
 41
1.0
 50
0.0
 71
0
 42
2.5
  3
OpenSansCondensed-LightItalic.ttf
  4

  0
STYLE
  5
4E
330
5
100
AcDbSymbolTableRecord
100
AcDbTextStyleTableRecord
  2
LiberationSans
 70
0
 40
0.0
 41
1.0
 50
0.0
 71
0
 42
2.5
  3
LiberationSans-Regular.ttf
  4

  0
STYLE
  5
4F
330
5
100
AcDbSymbolTableRecord
100
AcDbTextStyleTableRecord
  2
LiberationSans-Bold
 70
0
 40
0.0
 41
1.0
 50
0.0
 71
0
 42
2.5
  3
LiberationSans-Bold.ttf
  4

  0
STYLE
  5
50
330
5
100
AcDbSymbolTableRecord
100
AcDbTextStyleTableRecord
  2
LiberationSans-BoldItalic
 70
0
 40
0.0
 41
1.0
 50
0.0
 71
0
 42
2.5
  3
LiberationSans-BoldItalic.ttf
  4

  0
STYLE
  5
51
330
5
100
AcDbSymbolTableRecord
100
AcDbTextStyleTableRecord
  2
LiberationSans-Italic
 70
0
 40
0.0
 41
1.0
 50
0.0
 71
0
 42
2.5
  3
LiberationSans-Italic.ttf
  4

  0
STYLE
  5
52
330
5
100
AcDbSymbolTableRecord
100
AcDbTextStyleTableRecord
  2
LiberationSerif
 70
0
 40
0.0
 41
1.0
 50
0.0
 71
0
 42
2.5
  3
LiberationSerif-Regular.ttf
  4

  0
STYLE
  5
53
330
5
100
AcDbSymbolTableRecord
100
AcDbTextStyleTableRecord
  2
LiberationSerif-Bold
 70
0
 40
0.0
 41
1.0
 50
0.0
 71
0
 42
2.5
  3
LiberationSerif-Bold.ttf
  4

  0
STYLE
  5
54
330
5
100
AcDbSymbolTableRecord
100
AcDbTextStyleTableRecord
  2
LiberationSerif-BoldItalic
 70
0
 40
0.0
 41
1.0
 50
0.0
 71
0
 42
2.5
  3
LiberationSerif-BoldItalic.ttf
  4

  0
STYLE
  5
55
330
5
100
AcDbSymbolTableRecord
100
AcDbTextStyleTableRecord
  2
LiberationSerif-Italic
 70
0
 40
0.0
 41
1.0
 50
0.0
 71
0
 42
2.5
  3
LiberationSerif-Italic.ttf
  4

  0
STYLE
  5
56
330
5
100
AcDbSymbolTableRecord
100
AcDbTextStyleTableRecord
  2
LiberationMono
 70
0
 40
0.0
 41
1.0
 50
0.0
 71
0
 42
2.5
  3
LiberationMono-Regular.ttf
  4

  0
STYLE
  5
57
330
5
100
AcDbSymbolTableRecord
100
AcDbTextStyleTableRecord
  2
LiberationMono-Bold
 70
0
 40
0.0
 41
1.0
 50
0.0
 71
0
 42
2.5
  3
LiberationMono-Bold.ttf
  4

  0
STYLE
  5
58
330
5
100
AcDbSymbolTableRecord
100
AcDbTextStyleTableRecord
  2
LiberationMono-BoldItalic
 70
0
 40
0.0
 41
1.0
 50
0.0
 71
0
 42
2.5
  3
LiberationMono-BoldItalic.ttf
  4

  0
STYLE
  5
59
330
5
100
AcDbSymbolTableRecord
100
AcDbTextStyleTableRecord
  2
LiberationMono-Italic
 70
0
 40
0.0
 41
1.0
 50
0.0
 71
0
 42
2.5
  3
LiberationMono-Italic.ttf
  4

  0
STYLE
  5
91
330
5
100
AcDbSymbolTableRecord
100
AcDbTextStyleTableRecord
  2
CJK
 70
0
 40
0.0
 41
1.0
 50
0.0
 71
0
 42
2.5
  3
isocp.shx
  4

  0
STYLE
  5
92
330
5
100
AcDbSymbolTableRecord
100
AcDbTextStyleTableRecord
  2
CJK_BOLD
 70
0
 40
0.0
 41
1.0
 50
0.0
 71
0
 42
2.5
  3
isocp.shx
  4

  0
ENDTAB
  0
TABLE
  2
VIEW
  5
7
330
0
100
AcDbSymbolTable
 70
0
  0
ENDTAB
  0
TABLE
  2
UCS
  5
6
330
0
100
AcDbSymbolTable
 70
0
  0
ENDTAB
  0
TABLE
  2
APPID
  5
3
330
0
100
AcDbSymbolTable
 70
3
  0
APPID
  5
2A
330
3
100
AcDbSymbolTableRecord
100
AcDbRegAppTableRecord
  2
ACAD
 70
0
  0
APPID
  5
1A3
330
3
100
AcDbSymbolTableRecord
100
AcDbRegAppTableRecord
  2
HATCHBACKGROUNDCOLOR
 70
0
  0
APPID
  5
1A4
330
3
100
AcDbSymbolTableRecord
100
AcDbRegAppTableRecord
  2
EZDXF
 70
0
  0
ENDTAB
  0
TABLE
  2
DIMSTYLE
  5
4
330
0
100
AcDbSymbolTable
 70
12
100
AcDbDimStyleTable
  0
DIMSTYLE
105
2B
330
4
100
AcDbSymbolTableRecord
100
AcDbDimStyleTableRecord
  2
Standard
 70
0
 40
1.0
 41
2.5
 42
0.625
 43
3.75
 44
1.25
 45
0.0
 46
0.0
 47
0.0
 48
0.0
 49
2.5
140
2.5
141
2.5
142
0.0
143
0.03937007874
144
1.0
145
0.0
146
1.0
147
0.625
148
0.0
 69
0
 70
0
 71
0
 72
0
 73
0
 74
0
 75
0
 76
0
 77
1
 78
8
 79
3
170
0
171
3
172
1
173
0
174
0
175
0
176
0
177
0
178
0
179
2
271
2
272
2
273
2
274
3
275
0
276
0
277
2
278
44
279
0
280
0
281
0
282
0
283
0
284
8
285
0
286
0
288
0
289
3
290
0
371
-2
372
-2
  0
DIMSTYLE
105
73
330
4
100
AcDbSymbolTableRecord
100
AcDbDimStyleTableRecord
  2
EZDXF
 70
0
 40
1.0
 41
0.175
 42
0.125
 43
3.75
 44
0.375
 45
0.0
 46
0.0
 47
0.0
 48
0.0
 49
2.5
140
0.25
141
2.5
142
0.0
143
0.03937007874
144
100.0
145
0.0
146
0.5
147
0.1
148
0.0
 69
0
 70
0
 71
0
 72
0
 73
0
 74
0
 75
0
 76
0
 77
1
 78
12
 79
3
170
0
171
3
172
1
173
0
174
0
175
0
176
0
177
0
178
0
179
2
271
2
272
2
273
2
274
3
275
0
276
0
277
2
278
46
279
2
280
0
281
0
282
0
283
0
284
8
285
0
286
0
288
1
289
3
290
0
340
4C
342
74
371
-2
372
-2
  0
DIMSTYLE
105
7C
330
4
100
AcDbSymbolTableRecord
100
AcDbDimStyleTableRecord
  2
EZ_M_100_H25_CM
 70
0
 40
1.0
 41
0.25
 42
0.125
 43
3.75
 44
0.375
 45
0.0
 46
0.0
 47
0.0
 48
0.0
 49
2.5
140
0.25
141
2.5
142
0.125
143
0.03937007874
144
100.0
145
0.0
146
0.5
147
0.1
148
0.0
 69
0
 70
0
 71
0
 72
0
 73
0
 74
0
 75
0
 76
0
 77
1
 78
12
 79
3
170
0
171
3
172
1
173
0
174
0
175
0
176
0
177
0
178
0
179
2
271
2
272
2
273
2
274
3
275
0
276
0
277
2
278
46
279
2
280
0
281
0
282
0
283
0
284
8
285
0
286
0
288
1
289
3
290
0
340
4C
371
-2
372
-2
  0
DIMSTYLE
105
7D
330
4
100
AcDbSymbolTableRecord
100
AcDbDimStyleTableRecord
  2
EZ_M_50_H25_CM
 70
0
 40
1.0
 41
0.125
 42
0.0625
 43
3.75
 44
0.1875
 45
0.0
 46
0.0
 47
0.0
 48
0.0
 49
2.5
140
0.125
141
2.5
142
0.0625
143
0.03937007874
144
100.0
145
0.0
146
0.5
147
0.05
148
0.0
 69
0
 70
0
 71
0
 72
0
 73
0
 74
0
 75
0
 76
0
 77
1
 78
12
 79
3
170
0
171
3
172
1
173
0
174
0
175
0
176
0
177
0
178
0
179
2
271
2
272
2
273
2
274
3
275
0
276
0
277
2
278
46
279
2
280
0
281
0
282
0
283
0
284
8
285
0
286
0
288
1
289
3
290
0
340
4C
371
-2
372
-2
  0
DIMSTYLE
105
7E
330
4
100
AcDbSymbolTableRecord
100
AcDbDimStyleTableRecord
  2
EZ_M_25_H25_CM
 70
0
 40
1.0
 41
0.0625
 42
0.03125
 43
3.75
 44
0.09375
 45
0.0
 46
0.0
 47
0.0
 48
0.0
 49
2.5
140
0.0625
141
2.5
142
0.03125
143
0.03937007874
144
100.0
145
0.0
146
0.5
147
0.025
148
0.0
 69
0
 70
0
 71
0
 72
0
 73
0
 74
0
 75
0
 76
0
 77
1
 78
12
 79
3
170
0
171
3
172
1
173
0
174
0
175
0
176
0
177
0
178
0
179
2
271
2
272
2
273
2
274
3
275
0
276
0
277
2
278
46
279
2
280
0
281
0
282
0
283
0
284
8
285
0
286
0
288
1
289
3
290
0
340
4C
371
-2
372
-2
  0
DIMSTYLE
105
7F
330
4
100
AcDbSymbolTableRecord
100
AcDbDimStyleTableRecord
  2
EZ_M_20_H25_CM
 70
0
 40
1.0
 41
0.05
 42
0.025
 43
3.75
 44
0.07500000000000001
 45
0.0
 46
0.0
 47
0.0
 48
0.0
 49
2.5
140
0.05
141
2.5
142
0.025
143
0.03937007874
144
100.0
145
0.0
146
0.5
147
0.020000000000000004
148
0.0
 69
0
 70
0
 71
0
 72
0
 73
0
 74
0
 75
0
 76
0
 77
1
 78
12
 79
3
170
0
171
3
172
1
173
0
174
0
175
0
176
0
177
0
178
0
179
2
271
2
272
2
273
2
274
3
275
0
276
0
277
2
278
46
279
2
280
0
281
0
282
0
283
0
284
8
285
0
286
0
288
1
289
3
290
0
340
4C
371
-2
372
-2
  0
DIMSTYLE
105
80
330
4
100
AcDbSymbolTableRecord
100
AcDbDimStyleTableRecord
  2
EZ_M_10_H25_CM
 70
0
 40
1.0
 41
0.025
 42
0.0125
 43
3.75
 44
0.037500000000000006
 45
0.0
 46
0.0
 47
0.0
 48
0.0
 49
2.5
140
0.025
141
2.5
142
0.0125
143
0.03937007874
144
100.0
145
0.0
146
0.5
147
0.010000000000000002
148
0.0
 69
0
 70
0
 71
0
 72
0
 73
0
 74
0
 75
0
 76
0
 77
1
 78
12
 79
3
170
0
171
3
172
1
173
0
174
0
175
0
176
0
177
0
178
0
179
2
271
2
272
2
273
2
274
3
275
0
276
0
277
2
278
46
279
2
280
0
281
0
282
0
283
0
284
8
285
0
286
0
288
1
289
3
290
0
340
4C
371
-2
372
-2
  0
DIMSTYLE
105
81
330
4
100
AcDbSymbolTableRecord
100
AcDbDimStyleTableRecord
  2
EZ_M_5_H25_CM
 70
0
 40
1.0
 41
0.0125
 42
0.00625
 43
3.75
 44
0.018750000000000003
 45
0.0
 46
0.0
 47
0.0
 48
0.0
 49
2.5
140
0.0125
141
2.5
142
0.00625
143
0.03937007874
144
100.0
145
0.0
146
0.5
147
0.005000000000000001
148
0.0
 69
0
 70
0
 71
0
 72
0
 73
0
 74
0
 75
0
 76
0
 77
1
 78
12
 79
3
170
0
171
3
172
1
173
0
174
0
175
0
176
0
177
0
178
0
179
2
271
2
272
2
273
2
274
3
275
0
276
0
277
2
278
46
279
2
280
0
281
0
282
0
283
0
284
8
285
0
286
0
288
1
289
3
290
0
340
4C
371
-2
372
-2
  0
DIMSTYLE
105
82
330
4
100
AcDbSymbolTableRecord
100
AcDbDimStyleTableRecord
  2
EZ_M_1_H25_CM
 70
0
 40
1.0
 41
0.0025
 42
0.00125
 43
3.75
 44
0.00375
 45
0.0
 46
0.0
 47
0.0
 48
0.0
 49
2.5
140
0.0025
141
2.5
142
0.00125
143
0.03937007874
144
100.0
145
0.0
146
0.5
147
0.001
148
0.0
 69
0
 70
0
 71
0
 72
0
 73
0
 74
0
 75
0
 76
0
 77
1
 78
12
 79
3
170
0
171
3
172
1
173
0
174
0
175
0
176
0
177
0
178
0
179
2
271
2
272
2
273
2
274
3
275
0
276
0
277
2
278
46
279
2
280
0
281
0
282
0
283
0
284
8
285
0
286
0
288
1
289
3
290
0
340
4C
371
-2
372
-2
  0
DIMSTYLE
105
83
330
4
100
AcDbSymbolTableRecord
100
AcDbDimStyleTableRecord
  2
EZ_RADIUS
 70
0
 40
1.0
 41
0.25
 42
0.125
 43
3.75
 44
0.375
 45
0.0
 46
0.0
 47
0.0
 48
0.0
 49
2.5
140
0.25
141
0.0
142
0.0
143
0.03937007874
144
100.0
145
0.0
146
0.5
147
0.1
148
0.0
 69
0
 70
0
 71
0
 72
0
 73
0
 74
0
 75
0
 76
0
 77
1
 78
12
 79
3
170
0
171
3
172
0
173
0
174
0
175
0
176
0
177
0
178
0
179
2
271
2
272
2
273
2
274
3
275
0
276
0
277
2
278
46
279
1
280
0
281
0
282
0
283
0
284
8
285
0
286
0
288
1
289
3
290
0
340
4C
342
84
371
-2
372
-2
  0
DIMSTYLE
105
88
330
4
100
AcDbSymbolTableRecord
100
AcDbDimStyleTableRecord
  2
EZ_RADIUS_INSIDE
 70
0
 40
1.0
 41
0.25
 42
0.125
 43
3.75
 44
0.375
 45
0.0
 46
0.0
 47
0.0
 48
0.0
 49
2.5
140
0.25
141
0.0
142
0.0
143
0.03937007874
144
100.0
145
0.0
146
0.5
147
0.1
148
0.0
 69
0
 70
0
 71
0
 72
0
 73
0
 74
0
 75
0
 76
0
 77
0
 78
12
 79
3
170
0
171
3
172
0
173
0
174
1
175
0
176
0
177
0
178
0
179
2
271
2
272
2
273
2
274
3
275
0
276
0
277
2
278
46
279
0
280
0
281
0
282
0
283
0
284
8
285
0
286
0
288
1
289
0
290
0
340
4C
342
84
371
-2
372
-2
  0
DIMSTYLE
105
89
330
4
100
AcDbSymbolTableRecord
100
AcDbDimStyleTableRecord
  2
EZ_CURVED
 70
0
 40
1.0
 41
0.25
 42
0.125
 43
3.75
 44
0.375
 45
0.0
 46
0.0
 47
0.0
 48
0.0
 49
2.5
140
0.25
141
2.5
142
0.0
143
0.03937007874
144
100.0
145
0.0
146
0.5
147
0.1
148
0.0
 69
0
 70
0
 71
0
 72
0
 73
0
 74
0
 75
0
 76
0
 77
1
 78
12
 79
2
 90
2
170
0
171
3
172
1
173
0
174
0
175
0
176
0
177
0
178
0
179
2
271
2
272
2
273
2
274
3
275
0
276
0
277
2
278
46
279
2
280
0
281
0
282
0
283
0
284
8
285
0
286
0
288
1
289
3
290
0
340
4C
371
-2
372
-2
  0
ENDTAB
  0
TABLE
  2
BLOCK_RECORD
  5
9
330
0
100
AcDbSymbolTable
 70
5
  0
BLOCK_RECORD
  5
17
330
9
100
AcDbSymbolTableRecord
100
AcDbBlockTableRecord
  2
*Model_Space
340
1A
 70
0
280
1
281
0
  0
BLOCK_RECORD
  5
1B
330
9
100
AcDbSymbolTableRecord
100
AcDbBlockTableRecord
  2
*Paper_Space
340
1E
 70
0
280
1
281
0
  0
BLOCK_RECORD
  5
74
330
9
100
AcDbSymbolTableRecord
100
AcDbBlockTableRecord
  2
_ARCHTICK
340
0
 70
0
280
1
281
0
  0
BLOCK_RECORD
  5
78
330
9
100
AcDbSymbolTableRecord
100
AcDbBlockTableRecord
  2
_CLOSEDFILLED
340
0
 70
0
280
1
281
0
  0
BLOCK_RECORD
  5
84
330
9
100
AcDbSymbolTableRecord
100
AcDbBlockTableRecord
  2
_CLOSEDBLANK
340
0
 70
0
280
1
281
0
  0
ENDTAB
  0
ENDSEC
  0
SECTION
  2
BLOCKS
  0
BLOCK
  5
18
330
17
100
AcDbEntity
  8
0
100
AcDbBlockBegin
  2
*Model_Space
 70
0
 10
0.0
 20
0.0
 30
0.0
  3
*Model_Space
  1

  0
ENDBLK
  5
19
330
17
100
AcDbEntity
  8
0
100
AcDbBlockEnd
  0
BLOCK
  5
1C
330
1B
100
AcDbEntity
  8
0
100
AcDbBlockBegin
  2
*Paper_Space
 70
0
 10
0.0
 20
0.0
 30
0.0
  3
*Paper_Space
  1

  0
ENDBLK
  5
1D
330
1B
100
AcDbEntity
  8
0
100
AcDbBlockEnd
  0
BLOCK
  5
75
330
74
100
AcDbEntity
  8
0
100
AcDbBlockBegin
  2
_ARCHTICK
 70
0
 10
0.0
 20
0.0
 30
0.0
  3
_ARCHTICK
  1

  0
LWPOLYLINE
  5
77
330
74
100
AcDbEntity
  8
0
  6
BYBLOCK
 62
0
100
AcDbPolyline
 90
2
 70
0
 43
0.15
 10
-0.5
 20
-0.5
 10
0.5
 20
0.5
  0
ENDBLK
  5
76
330
74
100
AcDbEntity
  8
0
100
AcDbBlockEnd
  0
BLOCK
  5
79
330
78
100
AcDbEntity
  8
0
100
AcDbBlockBegin
  2
_CLOSEDFILLED
 70
0
 10
0.0
 20
0.0
 30
0.0
  3
_CLOSEDFILLED
  1

  0
SOLID
  5
7B
330
78
100
AcDbEntity
  8
0
  6
BYBLOCK
 62
0
100
AcDbTrace
 10
-1.0
 20
0.16439898372402537
 30
0.0
 11
0.0
 21
0.0
 31
0.0
 12
-1.0
 22
-0.16439898372402537
 32
0.0
 13
-1.0
 23
-0.16439898372402537
 33
0.0
  0
ENDBLK
  5
7A
330
78
100
AcDbEntity
  8
0
100
AcDbBlockEnd
  0
BLOCK
  5
85
330
84
100
AcDbEntity
  8
0
100
AcDbBlockBegin
  2
_CLOSEDBLANK
 70
0
 10
0.0
 20
0.0
 30
0.0
  3
_CLOSEDBLANK
  1

  0
LWPOLYLINE
  5
87
330
84
100
AcDbEntity
  8
0
  6
BYBLOCK
 62
0
100
AcDbPolyline
 90
3
 70
1
 10
-1.0
 20
0.16439898372402537
 10
0.0
 20
0.0
 10
-1.0
 20
-0.16439898372402537
  0
ENDBLK
  5
86
330
84
100
AcDbEntity
  8
0
100
AcDbBlockEnd
  0
ENDSEC
  0
SECTION
  2
ENTITIES
  0
LWPOLYLINE
  5
93
330
17
100
AcDbEntity
  8
HULL
100
AcDbPolyline
 90
402
 70
1
 10
-3000.0
 20
0.0
 10
-2085.0
 20
3053.7366307480256
 10
-1170.0
 20
4292.241244739988
 10
-255.0
 20
5224.373883942875
 10
660.0
 20
5994.793585979768
 10
1575.0
 20
6659.860199800475
 10
2490.0
 20
7248.630609044111
 10
3405.0
 20
7778.4493065750885
 10
4320.0
 20
8260.667140530973
 10
5235.0
 20
8703.19996791068
 10
6150.0
 20
9111.831749946614
 10
7065.0
 20
9490.942317827688
 10
7980.0
 20
9843.94303134837
 10
8895.0
 20
10173.55212360139
 10
9810.0
 20
10481.976497871909
 10
10725.0
 20
10771.036156069027
 10
11640.0
 20
11042.251968319504
 10
12555.0
 20
11296.909191078246
 10
13470.0
 20
11536.104459226382
 10
14385.0
 20
11760.781224051403
 10
15300.0
 20
11971.75692991299
 10
16215.0
 20
12169.74416579666
 10
17130.0
 20
12355.367344440492
 10
18045.0
 20
12529.176008592649
 10
18960.0
 20
12691.655556924921
 10
19875.0
 20
12843.23596995926
 10
20790.0
 20
12984.298967121407
 10
21705.0
 20
13115.183919344294
 10
22620.0
 20
13236.192764234236
 10
23535.0
 20
13347.594113877185
 10
24450.0
 20
13449.626702951777
 10
25365.0
 20
13542.502292848267
 10
26280.0
 20
13626.408123124382
 10
27195.0
 20
13701.508982853029
 10
28110.0
 20
13767.948959796327
 10
29025.0
 20
13825.85291383551
 10
29940.0
 20
13875.327711934353
 10
30855.0
 20
13916.463254549823
 10
31770.0
 20
13949.333317402663
 10
32685.0
 20
13973.996227560212
 10
33600.0
 20
13990.495388614248
 10
34515.0
 20
13998.859666162405
 10
35430.0
 20
14000.0
 10
36345.0
 20
14000.0
 10
37260.0
 20
14000.0
 10
38175.0
 20
14000.0
 10
39090.0
 20
14000.0
 10
40005.0
 20
14000.0
 10
40920.0
 20
14000.0
 10
41835.0
 20
14000.0
 10
42750.0
 20
14000.0
 10
43665.0
 20
14000.0
 10
44580.0
 20
14000.0
 10
45495.0
 20
14000.0
 10
46410.0
 20
14000.0
 10
47325.0
 20
14000.0
 10
48240.0
 20
14000.0
 10
49155.0
 20
14000.0
 10
50070.0
 20
14000.0
 10
50985.0
 20
14000.0
 10
51900.0
 20
14000.0
 10
52815.0
 20
14000.0
 10
53730.0
 20
14000.0
 10
54645.0
 20
14000.0
 10
55560.0
 20
14000.0
 10
56475.0
 20
14000.0
 10
57390.0
 20
14000.0
 10
58305.0
 20
14000.0
 10
59220.0
 20
14000.0
 10
60135.0
 20
14000.0
 10
61050.0
 20
14000.0
 10
61965.0
 20
14000.0
 10
62880.0
 20
14000.0
 10
63795.0
 20
14000.0
 10
64710.0
 20
14000.0
 10
65625.0
 20
14000.0
 10
66540.0
 20
14000.0
 10
67455.0
 20
14000.0
 10
68370.0
 20
14000.0
 10
69285.0
 20
14000.0
 10
70200.0
 20
14000.0
 10
71115.0
 20
14000.0
 10
72030.0
 20
14000.0
 10
72945.0
 20
14000.0
 10
73860.0
 20
14000.0
 10
74775.0
 20
14000.0
 10
75690.0
 20
14000.0
 10
76605.0
 20
14000.0
 10
77520.0
 20
14000.0
 10
78435.0
 20
14000.0
 10
79350.0
 20
14000.0
 10
80265.0
 20
14000.0
 10
81180.0
 20
14000.0
 10
82095.0
 20
14000.0
 10
83010.0
 20
14000.0
 10
83925.0
 20
14000.0
 10
84840.0
 20
14000.0
 10
85755.0
 20
14000.0
 10
86670.0
 20
14000.0
 10
87585.0
 20
14000.0
 10
88500.0
 20
14000.0
 10
89415.0
 20
14000.0
 10
90330.0
 20
14000.0
 10
91245.0
 20
14000.0
 10
92160.0
 20
14000.0
 10
93075.0
 20
14000.0
 10
93990.0
 20
14000.0
 10
94905.0
 20
14000.0
 10
95820.0
 20
14000.0
 10
96735.0
 20
14000.0
 10
97650.0
 20
14000.0
 10
98565.0
 20
14000.0
 10
99480.0
 20
14000.0
 10
100395.0
 20
14000.0
 10
101310.0
 20
14000.0
 10
102225.0
 20
14000.0
 10
103140.0
 20
14000.0
 10
104055.0
 20
14000.0
 10
104970.0
 20
14000.0
 10
105885.0
 20
14000.0
 10
106800.0
 20
14000.0
 10
107715.0
 20
14000.0
 10
108630.0
 20
14000.0
 10
109545.0
 20
14000.0
 10
110460.0
 20
14000.0
 10
111375.0
 20
14000.0
 10
112290.0
 20
14000.0
 10
113205.0
 20
14000.0
 10
114120.0
 20
14000.0
 10
115035.0
 20
14000.0
 10
115950.0
 20
14000.0
 10
116865.0
 20
14000.0
 10
117780.0
 20
14000.0
 10
118695.0
 20
14000.0
 10
119610.0
 20
14000.0
 10
120525.0
 20
14000.0
 10
121440.0
 20
14000.0
 10
122355.0
 20
14000.0
 10
123270.0
 20
14000.0
 10
124185.0
 20
14000.0
 10
125100.0
 20
14000.0
 10
126015.0
 20
14000.0
 10
126930.0
 20
14000.0
 10
127845.0
 20
14000.0
 10
128760.0
 20
14000.0
 10
129675.0
 20
14000.0
 10
130590.0
 20
14000.0
 10
131505.0
 20
14000.0
 10
132420.0
 20
14000.0
 10
133335.0
 20
14000.0
 10
134250.0
 20
14000.0
 10
135165.0
 20
14000.0
 10
136080.0
 20
14000.0
 10
136995.0
 20
14000.0
 10
137910.0
 20
14000.0
 10
138825.0
 20
14000.0
 10
139740.0
 20
14000.0
 10
140655.0
 20
14000.0
 10
141570.0
 20
14000.0
 10
142485.0
 20
14000.0
 10
143400.0
 20
14000.0
 10
144315.0
 20
14000.0
 10
145230.0
 20
14000.0
 10
146145.0
 20
14000.0
 10
147060.0
 20
14000.0
 10
147975.0
 20
14000.0
 10
148890.0
 20
13994.584206376943
 10
149805.0
 20
13977.710601251685
 10
150720.0
 20
13949.333317402663
 10
151635.0
 20
13909.381947173057
 10
152550.0
 20
13857.756388007945
 10
153465.0
 20
13794.325567822942
 10
154380.0
 20
13718.925739193284
 10
155295.0
 20
13631.358289201915
 10
156210.0
 20
13531.386994110213
 10
157125.0
 20
13418.734626068277
 10
158040.0
 20
13293.078791235686
 10
158955.0
 20
13154.04684269612
 10
159870.0
 20
13001.20966427259
 10
160785.0
 20
12834.074058286937
 10
161700.0
 20
12652.073384923911
 10
162615.0
 20
12454.55598349832
 10
163530.0
 20
12240.770742047864
 10
164445.0
 20
12009.848948981156
 10
165360.0
 20
11760.781224051403
 10
166275.0
 20
11492.387829661153
 10
167190.0
 20
11203.279915246918
 10
168105.0
 20
10891.808091225888
 10
169020.0
 20
10555.992892073204
 10
169935.0
 20
10193.428676534395
 10
170850.0
 20
9801.147393768497
 10
171765.0
 20
9375.419568736312
 10
172680.0
 20
8911.452953923956
 10
173595.0
 20
8402.915875744784
 10
174510.0
 20
7841.141274353817
 10
175425.0
 20
7213.702070268341
 10
176340.0
 20
6501.6150637745395
 10
177255.0
 20
5673.094316252265
 10
178170.0
 20
4666.529718042625
 10
179085.0
 20
3323.928384057596
 10
180000.0
 20
0.0
 10
180000.0
 20
-0.0
 10
179085.0
 20
-3323.928384057596
 10
178170.0
 20
-4666.529718042625
 10
177255.0
 20
-5673.094316252265
 10
176340.0
 20
-6501.6150637745395
 10
175425.0
 20
-7213.702070268341
 10
174510.0
 20
-7841.141274353817
 10
173595.0
 20
-8402.915875744784
 10
172680.0
 20
-8911.452953923956
 10
171765.0
 20
-9375.419568736312
 10
170850.0
 20
-9801.147393768497
 10
169935.0
 20
-10193.428676534395
 10
169020.0
 20
-10555.992892073204
 10
168105.0
 20
-10891.808091225888
 10
167190.0
 20
-11203.279915246918
 10
166275.0
 20
-11492.387829661153
 10
165360.0
 20
-11760.781224051403
 10
164445.0
 20
-12009.848948981156
 10
163530.0
 20
-12240.770742047864
 10
162615.0
 20
-12454.55598349832
 10
161700.0
 20
-12652.073384923911
 10
160785.0
 20
-12834.074058286937
 10
159870.0
 20
-13001.20966427259
 10
158955.0
 20
-13154.04684269612
 10
158040.0
 20
-13293.078791235686
 10
157125.0
 20
-13418.734626068277
 10
156210.0
 20
-13531.386994110213
 10
155295.0
 20
-13631.358289201915
 10
154380.0
 20
-13718.925739193284
 10
153465.0
 20
-13794.325567822942
 10
152550.0
 20
-13857.756388007945
 10
151635.0
 20
-13909.381947173057
 10
150720.0
 20
-13949.333317402663
 10
149805.0
 20
-13977.710601251685
 10
148890.0
 20
-13994.584206376943
 10
147975.0
 20
-14000.0
 10
147060.0
 20
-14000.0
 10
146145.0
 20
-14000.0
 10
145230.0
 20
-14000.0
 10
144315.0
 20
-14000.0
 10
143400.0
 20
-14000.0
 10
142485.0
 20
-14000.0
 10
141570.0
 20
-14000.0
 10
140655.0
 20
-14000.0
 10
139740.0
 20
-14000.0
 10
138825.0
 20
-14000.0
 10
137910.0
 20
-14000.0
 10
136995.0
 20
-14000.0
 10
136080.0
 20
-14000.0
 10
135165.0
 20
-14000.0
 10
134250.0
 20
-14000.0
 10
133335.0
 20
-14000.0
 10
132420.0
 20
-14000.0
 10
131505.0
 20
-14000.0
 10
130590.0
 20
-14000.0
 10
129675.0
 20
-14000.0
 10
128760.0
 20
-14000.0
 10
127845.0
 20
-14000.0
 10
126930.0
 20
-14000.0
 10
126015.0
 20
-14000.0
 10
125100.0
 20
-14000.0
 10
124185.0
 20
-14000.0
 10
123270.0
 20
-14000.0
 10
122355.0
 20
-14000.0
 10
121440.0
 20
-14000.0
 10
120525.0
 20
-14000.0
 10
119610.0
 20
-14000.0
 10
118695.0
 20
-14000.0
 10
117780.0
 20
-14000.0
 10
116865.0
 20
-14000.0
 10
115950.0
 20
-14000.0
 10
115035.0
 20
-14000.0
 10
114120.0
 20
-14000.0
 10
113205.0
 20
-14000.0
 10
112290.0
 20
-14000.0
 10
111375.0
 20
-14000.0
 10
110460.0
 20
-14000.0
 10
109545.0
 20
-14000.0
 10
108630.0
 20
-14000.0
 10
107715.0
 20
-14000.0
 10
106800.0
 20
-14000.0
 10
105885.0
 20
-14000.0
 10
104970.0
 20
-14000.0
 10
104055.0
 20
-14000.0
 10
103140.0
 20
-14000.0
 10
102225.0
 20
-14000.0
 10
101310.0
 20
-14000.0
 10
100395.0
 20
-14000.0
 10
99480.0
 20
-14000.0
 10
98565.0
 20
-14000.0
 10
97650.0
 20
-14000.0
 10
96735.0
 20
-14000.0
 10
95820.0
 20
-14000.0
 10
94905.0
 20
-14000.0
 10
93990.0
 20
-14000.0
 10
93075.0
 20
-14000.0
 10
92160.0
 20
-14000.0
 10
91245.0
 20
-14000.0
 10
90330.0
 20
-14000.0
 10
89415.0
 20
-14000.0
 10
88500.0
 20
-14000.0
 10
87585.0
 20
-14000.0
 10
86670.0
 20
-14000.0
 10
85755.0
 20
-14000.0
 10
84840.0
 20
-14000.0
 10
83925.0
 20
-14000.0
 10
83010.0
 20
-14000.0
 10
82095.0
 20
-14000.0
 10
81180.0
 20
-14000.0
 10
80265.0
 20
-14000.0
 10
79350.0
 20
-14000.0
 10
78435.0
 20
-14000.0
 10
77520.0
 20
-14000.0
 10
76605.0
 20
-14000.0
 10
75690.0
 20
-14000.0
 10
74775.0
 20
-14000.0
 10
73860.0
 20
-14000.0
 10
72945.0
 20
-14000.0
 10
72030.0
 20
-14000.0
 10
71115.0
 20
-14000.0
 10
70200.0
 20
-14000.0
 10
69285.0
 20
-14000.0
 10
68370.0
 20
-14000.0
 10
67455.0
 20
-14000.0
 10
66540.0
 20
-14000.0
 10
65625.0
 20
-14000.0
 10
64710.0
 20
-14000.0
 10
63795.0
 20
-14000.0
 10
62880.0
 20
-14000.0
 10
61965.0
 20
-14000.0
 10
61050.0
 20
-14000.0
 10
60135.0
 20
-14000.0
 10
59220.0
 20
-14000.0
 10
58305.0
 20
-14000.0
 10
57390.0
 20
-14000.0
 10
56475.0
 20
-14000.0
 10
55560.0
 20
-14000.0
 10
54645.0
 20
-14000.0
 10
53730.0
 20
-14000.0
 10
52815.0
 20
-14000.0
 10
51900.0
 20
-14000.0
 10
50985.0
 20
-14000.0
 10
50070.0
 20
-14000.0
 10
49155.0
 20
-14000.0
 10
48240.0
 20
-14000.0
 10
47325.0
 20
-14000.0
 10
46410.0
 20
-14000.0
 10
45495.0
 20
-14000.0
 10
44580.0
 20
-14000.0
 10
43665.0
 20
-14000.0
 10
42750.0
 20
-14000.0
 10
41835.0
 20
-14000.0
 10
40920.0
 20
-14000.0
 10
40005.0
 20
-14000.0
 10
39090.0
 20
-14000.0
 10
38175.0
 20
-14000.0
 10
37260.0
 20
-14000.0
 10
36345.0
 20
-14000.0
 10
35430.0
 20
-14000.0
 10
34515.0
 20
-13998.859666162405
 10
33600.0
 20
-13990.495388614248
 10
32685.0
 20
-13973.996227560212
 10
31770.0
 20
-13949.333317402663
 10
30855.0
 20
-13916.463254549823
 10
29940.0
 20
-13875.327711934353
 10
29025.0
 20
-13825.85291383551
 10
28110.0
 20
-13767.948959796327
 10
27195.0
 20
-13701.508982853029
 10
26280.0
 20
-13626.408123124382
 10
25365.0
 20
-13542.502292848267
 10
24450.0
 20
-13449.626702951777
 10
23535.0
 20
-13347.594113877185
 10
22620.0
 20
-13236.192764234236
 10
21705.0
 20
-13115.183919344294
 10
20790.0
 20
-12984.298967121407
 10
19875.0
 20
-12843.23596995926
 10
18960.0
 20
-12691.655556924921
 10
18045.0
 20
-12529.176008592649
 10
17130.0
 20
-12355.367344440492
 10
16215.0
 20
-12169.74416579666
 10
15300.0
 20
-11971.75692991299
 10
14385.0
 20
-11760.781224051403
 10
13470.0
 20
-11536.104459226382
 10
12555.0
 20
-11296.909191078246
 10
11640.0
 20
-11042.251968319504
 10
10725.0
 20
-10771.036156069027
 10
9810.0
 20
-10481.976497871909
 10
8895.0
 20
-10173.55212360139
 10
7980.0
 20
-9843.94303134837
 10
7065.0
 20
-9490.942317827688
 10
6150.0
 20
-9111.831749946614
 10
5235.0
 20
-8703.19996791068
 10
4320.0
 20
-8260.667140530973
 10
3405.0
 20
-7778.4493065750885
 10
2490.0
 20
-7248.630609044111
 10
1575.0
 20
-6659.860199800475
 10
660.0
 20
-5994.793585979768
 10
-255.0
 20
-5224.373883942875
 10
-1170.0
 20
-4292.241244739988
 10
-2085.0
 20
-3053.7366307480256
 10
-3000.0
 20
-0.0
  0
LINE
  5
94
330
17
100
AcDbEntity
  8
CENTERLINE
100
AcDbLine
 10
-3000.0
 20
0.0
 30
0.0
 11
180000.0
 21
0.0
 31
0.0
  0
LINE
  5
95
330
17
100
AcDbEntity
  8
BULKHEAD
100
AcDbLine
 10
33500.0
 20
-14000.0
 30
0.0
 11
33500.0
 21
14000.0
 31
0.0
  0
LINE
  5
96
330
17
100
AcDbEntity
  8
BULKHEAD
100
AcDbLine
 10
47000.0
 20
-14000.0
 30
0.0
 11
47000.0
 21
14000.0
 31
0.0
  0
LINE
  5
97
330
17
100
AcDbEntity
  8
BULKHEAD
100
AcDbLine
 10
60500.0
 20
-14000.0
 30
0.0
 11
60500.0
 21
14000.0
 31
0.0
  0
LINE
  5
98
330
17
100
AcDbEntity
  8
BULKHEAD
100
AcDbLine
 10
74000.0
 20
-14000.0
 30
0.0
 11
74000.0
 21
14000.0
 31
0.0
  0
LINE
  5
99
330
17
100
AcDbEntity
  8
BULKHEAD
100
AcDbLine
 10
87500.0
 20
-14000.0
 30
0.0
 11
87500.0
 21
14000.0
 31
0.0
  0
LINE
  5
9A
330
17
100
AcDbEntity
  8
BULKHEAD
100
AcDbLine
 10
101000.0
 20
-14000.0
 30
0.0
 11
101000.0
 21
14000.0
 31
0.0
  0
LINE
  5
9B
330
17
100
AcDbEntity
  8
BULKHEAD
100
AcDbLine
 10
114500.0
 20
-14000.0
 30
0.0
 11
114500.0
 21
14000.0
 31
0.0
  0
LINE
  5
9C
330
17
100
AcDbEntity
  8
BULKHEAD
100
AcDbLine
 10
128000.0
 20
-14000.0
 30
0.0
 11
128000.0
 21
14000.0
 31
0.0
  0
LINE
  5
9D
330
17
100
AcDbEntity
  8
BULKHEAD
100
AcDbLine
 10
141500.0
 20
-14000.0
 30
0.0
 11
141500.0
 21
14000.0
 31
0.0
  0
LINE
  5
9E
330
17
100
AcDbEntity
  8
BULKHEAD
100
AcDbLine
 10
155000.0
 20
-14000.0
 30
0.0
 11
155000.0
 21
14000.0
 31
0.0
  0
LINE
  5
9F
330
17
100
AcDbEntity
  8
BULKHEAD
100
AcDbLine
 10
168500.0
 20
-14000.0
 30
0.0
 11
168500.0
 21
14000.0
 31
0.0
  0
LINE
  5
A0
330
17
100
AcDbEntity
  8
BULKHEAD
100
AcDbLine
 10
33500.0
 20
-14000.0
 30
0.0
 11
33500.0
 21
14000.0
 31
0.0
  0
LINE
  5
A1
330
17
100
AcDbEntity
  8
BULKHEAD
100
AcDbLine
 10
21000.0
 20
-14000.0
 30
0.0
 11
21000.0
 21
14000.0
 31
0.0
  0
LINE
  5
A2
330
17
100
AcDbEntity
  8
BULKHEAD
100
AcDbLine
 10
27000.0
 20
-14000.0
 30
0.0
 11
27000.0
 21
14000.0
 31
0.0
  0
LINE
  5
A3
330
17
100
AcDbEntity
  8
BULKHEAD
100
AcDbLine
 10
27000.0
 20
-14000.0
 30
0.0
 11
27000.0
 21
14000.0
 31
0.0
  0
LINE
  5
A4
330
17
100
AcDbEntity
  8
BULKHEAD
100
AcDbLine
 10
33500.0
 20
-14000.0
 30
0.0
 11
33500.0
 21
14000.0
 31
0.0
  0
LINE
  5
A5
330
17
100
AcDbEntity
  8
CENTERLINE
100
AcDbLine
 10
33500.0
 20
0.0
 30
0.0
 11
168500.0
 21
0.0
 31
0.0
  0
LINE
  5
A6
330
17
100
AcDbEntity
  8
BULKHEAD
100
AcDbLine
 10
0.0
 20
-14000.0
 30
0.0
 11
0.0
 21
14000.0
 31
0.0
  0
TEXT
  5
A7
330
17
100
AcDbEntity
  8
TEXT
100
AcDbText
 10
40250.0
 20
7000.0
 30
0.0
 40
600.0
  1
COT 10P
 11
40250.0
 21
7000.0
 31
0.0
100
AcDbText
  0
TEXT
  5
A8
330
17
100
AcDbEntity
  8
TEXT
100
AcDbText
 10
40250.0
 20
-7000.0
 30
0.0
 40
600.0
  1
COT 10S
 11
40250.0
 21
-7000.0
 31
0.0
100
AcDbText
  0
TEXT
  5
A9
330
17
100
AcDbEntity
  8
TEXT
100
AcDbText
 10
53750.0
 20
7000.0
 30
0.0
 40
600.0
  1
COT 9P
 11
53750.0
 21
7000.0
 31
0.0
100
AcDbText
  0
TEXT
  5
AA
330
17
100
AcDbEntity
  8
TEXT
100
AcDbText
 10
53750.0
 20
-7000.0
 30
0.0
 40
600.0
  1
COT 9S
 11
53750.0
 21
-7000.0
 31
0.0
100
AcDbText
  0
TEXT
  5
AB
330
17
100
AcDbEntity
  8
TEXT
100
AcDbText
 10
67250.0
 20
7000.0
 30
0.0
 40
600.0
  1
COT 8P
 11
67250.0
 21
7000.0
 31
0.0
100
AcDbText
  0
TEXT
  5
AC
330
17
100
AcDbEntity
  8
TEXT
100
AcDbText
 10
67250.0
 20
-7000.0
 30
0.0
 40
600.0
  1
COT 8S
 11
67250.0
 21
-7000.0
 31
0.0
100
AcDbText
  0
TEXT
  5
AD
330
17
100
AcDbEntity
  8
TEXT
100
AcDbText
 10
80750.0
 20
7000.0
 30
0.0
 40
600.0
  1
COT 7P
 11
80750.0
 21
7000.0
 31
0.0
100
AcDbText
  0
TEXT
  5
AE
330
17
100
AcDbEntity
  8
TEXT
100
AcDbText
 10
80750.0
 20
-7000.0
 30
0.0
 40
600.0
  1
COT 7S
 11
80750.0
 21
-7000.0
 31
0.0
100
AcDbText
  0
TEXT
  5
AF
330
17
100
AcDbEntity
  8
TEXT
100
AcDbText
 10
94250.0
 20
7000.0
 30
0.0
 40
600.0
  1
COT 6P
 11
94250.0
 21
7000.0
 31
0.0
100
AcDbText
  0
TEXT
  5
B0
330
17
100
AcDbEntity
  8
TEXT
100
AcDbText
 10
94250.0
 20
-7000.0
 30
0.0
 40
600.0
  1
COT 6S
 11
94250.0
 21
-7000.0
 31
0.0
100
AcDbText
  0
TEXT
  5
B1
330
17
100
AcDbEntity
  8
TEXT
100
AcDbText
 10
107750.0
 20
7000.0
 30
0.0
 40
600.0
  1
COT 5P
 11
107750.0
 21
7000.0
 31
0.0
100
AcDbText
  0
TEXT
  5
B2
330
17
100
AcDbEntity
  8
TEXT
100
AcDbText
 10
107750.0
 20
-7000.0
 30
0.0
 40
600.0
  1
COT 5S
 11
107750.0
 21
-7000.0
 31
0.0
100
AcDbText
  0
TEXT
  5
B3
330
17
100
AcDbEntity
  8
TEXT
100
AcDbText
 10
121250.0
 20
7000.0
 30
0.0
 40
600.0
  1
COT 4P
 11
121250.0
 21
7000.0
 31
0.0
100
AcDbText
  0
TEXT
  5
B4
330
17
100
AcDbEntity
  8
TEXT
100
AcDbText
 10
121250.0
 20
-7000.0
 30
0.0
 40
600.0
  1
COT 4S
 11
121250.0
 21
-7000.0
 31
0.0
100
AcDbText
  0
TEXT
  5
B5
330
17
100
AcDbEntity
  8
TEXT
100
AcDbText
 10
134750.0
 20
7000.0
 30
0.0
 40
600.0
  1
COT 3P
 11
134750.0
 21
7000.0
 31
0.0
100
AcDbText
  0
TEXT
  5
B6
330
17
100
AcDbEntity
  8
TEXT
100
AcDbText
 10
134750.0
 20
-7000.0
 30
0.0
 40
600.0
  1
COT 3S
 11
134750.0
 21
-7000.0
 31
0.0
100
AcDbText
  0
TEXT
  5
B7
330
17
100
AcDbEntity
  8
TEXT
100
AcDbText
 10
148250.0
 20
7000.0
 30
0.0
 40
600.0
  1
COT 2P
 11
148250.0
 21
7000.0
 31
0.0
100
AcDbText
  0
TEXT
  5
B8
330
17
100
AcDbEntity
  8
TEXT
100
AcDbText
 10
148250.0
 20
-7000.0
 30
0.0
 40
600.0
  1
COT 2S
 11
148250.0
 21
-7000.0
 31
0.0
100
AcDbText
  0
TEXT
  5
B9
330
17
100
AcDbEntity
  8
TEXT
100
AcDbText
 10
161750.0
 20
7000.0
 30
0.0
 40
600.0
  1
COT 1P
 11
161750.0
 21
7000.0
 31
0.0
100
AcDbText
  0
TEXT
  5
BA
330
17
100
AcDbEntity
  8
TEXT
100
AcDbText
 10
161750.0
 20
-7000.0
 30
0.0
 40
600.0
  1
COT 1S
 11
161750.0
 21
-7000.0
 31
0.0
100
AcDbText
  0
TEXT
  5
BB
330
17
100
AcDbEntity
  8
TEXT
100
AcDbText
 10
30250.0
 20
7000.0
 30
0.0
 40
550.0
  1
SLOP P
 11
30250.0
 21
7000.0
 31
0.0
100
AcDbText
  0
TEXT
  5
BC
330
17
100
AcDbEntity
  8
TEXT
100
AcDbText
 10
30250.0
 20
-7000.0
 30
0.0
 40
550.0
  1
SLOP S
 11
30250.0
 21
-7000.0
 31
0.0
100
AcDbText
  0
TEXT
  5
BD
330
17
100
AcDbEntity
  8
TEXT
100
AcDbText
 10
24000.0
 20
0.0
 30
0.0
 40
600.0
  1
PUMPROOM
 11
24000.0
 21
0.0
 31
0.0
100
AcDbText
  0
TEXT
  5
BE
330
17
100
AcDbEntity
  8
TEXT
100
AcDbText
 10
10500.0
 20
0.0
 30
0.0
 40
600.0
  1
ENGINEROOM
 11
10500.0
 21
0.0
 31
0.0
100
AcDbText
  0
TEXT
  5
BF
330
17
100
AcDbEntity
  8
TEXT
100
AcDbText
 10
172750.0
 20
0.0
 30
0.0
 40
500.0
  1
FOREPEAK
 11
172750.0
 21
0.0
 31
0.0
100
AcDbText
  0
LWPOLYLINE
  5
C0
330
17
100
AcDbEntity
  8
ANNOTATION
100
AcDbPolyline
 90
4
 70
1
 10
35400.0
 20
10700.0
 10
36600.0
 20
10700.0
 10
36600.0
 20
11300.0
 10
35400.0
 20
11300.0
  0
LWPOLYLINE
  5
C1
330
17
100
AcDbEntity
  8
ANNOTATION
100
AcDbPolyline
 90
4
 70
1
 10
35400.0
 20
-11300.0
 10
36600.0
 20
-11300.0
 10
36600.0
 20
-10700.0
 10
35400.0
 20
-10700.0
  0
LWPOLYLINE
  5
C2
330
17
100
AcDbEntity
  8
ANNOTATION
100
AcDbPolyline
 90
4
 70
1
 10
48900.0
 20
10700.0
 10
50100.0
 20
10700.0
 10
50100.0
 20
11300.0
 10
48900.0
 20
11300.0
  0
LWPOLYLINE
  5
C3
330
17
100
AcDbEntity
  8
ANNOTATION
100
AcDbPolyline
 90
4
 70
1
 10
48900.0
 20
-11300.0
 10
50100.0
 20
-11300.0
 10
50100.0
 20
-10700.0
 10
48900.0
 20
-10700.0
  0
LWPOLYLINE
  5
C4
330
17
100
AcDbEntity
  8
ANNOTATION
100
AcDbPolyline
 90
4
 70
1
 10
62400.0
 20
10700.0
 10
63600.0
 20
10700.0
 10
63600.0
 20
11300.0
 10
62400.0
 20
11300.0
  0
LWPOLYLINE
  5
C5
330
17
100
AcDbEntity
  8
ANNOTATION
100
AcDbPolyline
 90
4
 70
1
 10
62400.0
 20
-11300.0
 10
63600.0
 20
-11300.0
 10
63600.0
 20
-10700.0
 10
62400.0
 20
-10700.0
  0
LWPOLYLINE
  5
C6
330
17
100
AcDbEntity
  8
ANNOTATION
100
AcDbPolyline
 90
4
 70
1
 10
75900.0
 20
10700.0
 10
77100.0
 20
10700.0
 10
77100.0
 20
11300.0
 10
75900.0
 20
11300.0
  0
LWPOLYLINE
  5
C7
330
17
100
AcDbEntity
  8
ANNOTATION
100
AcDbPolyline
 90
4
 70
1
 10
75900.0
 20
-11300.0
 10
77100.0
 20
-11300.0
 10
77100.0
 20
-10700.0
 10
75900.0
 20
-10700.0
  0
LWPOLYLINE
  5
C8
330
17
100
AcDbEntity
  8
ANNOTATION
100
AcDbPolyline
 90
4
 70
1
 10
89400.0
 20
10700.0
 10
90600.0
 20
10700.0
 10
90600.0
 20
11300.0
 10
89400.0
 20
11300.0
  0
LWPOLYLINE
  5
C9
330
17
100
AcDbEntity
  8
ANNOTATION
100
AcDbPolyline
 90
4
 70
1
 10
89400.0
 20
-11300.0
 10
90600.0
 20
-11300.0
 10
90600.0
 20
-10700.0
 10
89400.0
 20
-10700.0
  0
LWPOLYLINE
  5
CA
330
17
100
AcDbEntity
  8
ANNOTATION
100
AcDbPolyline
 90
4
 70
1
 10
102900.0
 20
10700.0
 10
104100.0
 20
10700.0
 10
104100.0
 20
11300.0
 10
102900.0
 20
11300.0
  0
LWPOLYLINE
  5
CB
330
17
100
AcDbEntity
  8
ANNOTATION
100
AcDbPolyline
 90
4
 70
1
 10
102900.0
 20
-11300.0
 10
104100.0
 20
-11300.0
 10
104100.0
 20
-10700.0
 10
102900.0
 20
-10700.0
  0
LWPOLYLINE
  5
CC
330
17
100
AcDbEntity
  8
ANNOTATION
100
AcDbPolyline
 90
4
 70
1
 10
116400.0
 20
10700.0
 10
117600.0
 20
10700.0
 10
117600.0
 20
11300.0
 10
116400.0
 20
11300.0
  0
LWPOLYLINE
  5
CD
330
17
100
AcDbEntity
  8
ANNOTATION
100
AcDbPolyline
 90
4
 70
1
 10
116400.0
 20
-11300.0
 10
117600.0
 20
-11300.0
 10
117600.0
 20
-10700.0
 10
116400.0
 20
-10700.0
  0
LWPOLYLINE
  5
CE
330
17
100
AcDbEntity
  8
ANNOTATION
100
AcDbPolyline
 90
4
 70
1
 10
129900.0
 20
10700.0
 10
131100.0
 20
10700.0
 10
131100.0
 20
11300.0
 10
129900.0
 20
11300.0
  0
LWPOLYLINE
  5
CF
330
17
100
AcDbEntity
  8
ANNOTATION
100
AcDbPolyline
 90
4
 70
1
 10
129900.0
 20
-11300.0
 10
131100.0
 20
-11300.0
 10
131100.0
 20
-10700.0
 10
129900.0
 20
-10700.0
  0
LWPOLYLINE
  5
D0
330
17
100
AcDbEntity
  8
ANNOTATION
100
AcDbPolyline
 90
4
 70
1
 10
143400.0
 20
10700.0
 10
144600.0
 20
10700.0
 10
144600.0
 20
11300.0
 10
143400.0
 20
11300.0
  0
LWPOLYLINE
  5
D1
330
17
100
AcDbEntity
  8
ANNOTATION
100
AcDbPolyline
 90
4
 70
1
 10
143400.0
 20
-11300.0
 10
144600.0
 20
-11300.0
 10
144600.0
 20
-10700.0
 10
143400.0
 20
-10700.0
  0
LWPOLYLINE
  5
D2
330
17
100
AcDbEntity
  8
ANNOTATION
100
AcDbPolyline
 90
4
 70
1
 10
156900.0
 20
10700.0
 10
158100.0
 20
10700.0
 10
158100.0
 20
11300.0
 10
156900.0
 20
11300.0
  0
LWPOLYLINE
  5
D3
330
17
100
AcDbEntity
  8
ANNOTATION
100
AcDbPolyline
 90
4
 70
1
 10
156900.0
 20
-11300.0
 10
158100.0
 20
-11300.0
 10
158100.0
 20
-10700.0
 10
156900.0
 20
-10700.0
  0
TEXT
  5
D4
330
17
100
AcDbEntity
  8
TEXT
100
AcDbText
 10
101000.0
 20
19000.0
 30
0.0
 40
800.0
  1
PLAN VIEW — TANK TOP LEVEL  (俯视图 — 内底板平面)
 11
101000.0
 21
19000.0
 31
0.0
100
AcDbText
  0
LINE
  5
D5
330
17
100
AcDbEntity
  8
DIMENSION
100
AcDbLine
 10
33500.0
 20
-17000.0
 30
0.0
 11
168500.0
 21
-17000.0
 31
0.0
  0
LINE
  5
D6
330
17
100
AcDbEntity
  8
DIMENSION
100
AcDbLine
 10
33500.0
 20
-14000.0
 30
0.0
 11
33500.0
 21
-17300.0
 31
0.0
  0
LINE
  5
D7
330
17
100
AcDbEntity
  8
DIMENSION
100
AcDbLine
 10
168500.0
 20
-14000.0
 30
0.0
 11
168500.0
 21
-17300.0
 31
0.0
  0
LINE
  5
D8
330
17
100
AcDbEntity
  8
DIMENSION
100
AcDbLine
 10
33500.0
 20
-17000.0
 30
0.0
 11
33900.0
 21
-17400.0
 31
0.0
  0
LINE
  5
D9
330
17
100
AcDbEntity
  8
DIMENSION
100
AcDbLine
 10
33500.0
 20
-17000.0
 30
0.0
 11
33900.0
 21
-16600.0
 31
0.0
  0
LINE
  5
DA
330
17
100
AcDbEntity
  8
DIMENSION
100
AcDbLine
 10
168500.0
 20
-17000.0
 30
0.0
 11
168100.0
 21
-17400.0
 31
0.0
  0
LINE
  5
DB
330
17
100
AcDbEntity
  8
DIMENSION
100
AcDbLine
 10
168500.0
 20
-17000.0
 30
0.0
 11
168100.0
 21
-16600.0
 31
0.0
  0
TEXT
  5
DC
330
17
100
AcDbEntity
  8
TEXT
100
AcDbText
 10
101000.0
 20
-17700.0
 30
0.0
 40
500.0
  1
Cargo Area = 135m
 11
101000.0
 21
-17700.0
 31
0.0
100
AcDbText
  0
LINE
  5
DD
330
17
100
AcDbEntity
  8
DIMENSION
100
AcDbLine
 10
33500.0
 20
-14000.0
 30
0.0
 11
33500.0
 21
14000.0
 31
0.0
  0
LINE
  5
DE
330
17
100
AcDbEntity
  8
DIMENSION
100
AcDbLine
 10
28500.0
 20
-14000.0
 30
0.0
 11
33800.0
 21
-14000.0
 31
0.0
  0
LINE
  5
DF
330
17
100
AcDbEntity
  8
DIMENSION
100
AcDbLine
 10
28500.0
 20
14000.0
 30
0.0
 11
33800.0
 21
14000.0
 31
0.0
  0
LINE
  5
E0
330
17
100
AcDbEntity
  8
DIMENSION
100
AcDbLine
 10
33500.0
 20
-14000.0
 30
0.0
 11
33100.0
 21
-13600.0
 31
0.0
  0
LINE
  5
E1
330
17
100
AcDbEntity
  8
DIMENSION
100
AcDbLine
 10
33500.0
 20
-14000.0
 30
0.0
 11
33900.0
 21
-13600.0
 31
0.0
  0
LINE
  5
E2
330
17
100
AcDbEntity
  8
DIMENSION
100
AcDbLine
 10
33500.0
 20
14000.0
 30
0.0
 11
33100.0
 21
13600.0
 31
0.0
  0
LINE
  5
E3
330
17
100
AcDbEntity
  8
DIMENSION
100
AcDbLine
 10
33500.0
 20
14000.0
 30
0.0
 11
33900.0
 21
13600.0
 31
0.0
  0
TEXT
  5
E4
330
17
100
AcDbEntity
  8
TEXT
100
AcDbText
 10
34700.0
 20
0.0
 30
0.0
 40
500.0
  1
B = 28.0m
 50
90.0
 11
34700.0
 21
0.0
 31
0.0
100
AcDbText
  0
LINE
  5
E5
330
17
100
AcDbEntity
  8
DIMENSION
100
AcDbLine
 10
33500.0
 20
-19000.0
 30
0.0
 11
47000.0
 21
-19000.0
 31
0.0
  0
LINE
  5
E6
330
17
100
AcDbEntity
  8
DIMENSION
100
AcDbLine
 10
33500.0
 20
-14000.0
 30
0.0
 11
33500.0
 21
-19300.0
 31
0.0
  0
LINE
  5
E7
330
17
100
AcDbEntity
  8
DIMENSION
100
AcDbLine
 10
47000.0
 20
-14000.0
 30
0.0
 11
47000.0
 21
-19300.0
 31
0.0
  0
LINE
  5
E8
330
17
100
AcDbEntity
  8
DIMENSION
100
AcDbLine
 10
33500.0
 20
-19000.0
 30
0.0
 11
33900.0
 21
-19400.0
 31
0.0
  0
LINE
  5
E9
330
17
100
AcDbEntity
  8
DIMENSION
100
AcDbLine
 10
33500.0
 20
-19000.0
 30
0.0
 11
33900.0
 21
-18600.0
 31
0.0
  0
LINE
  5
EA
330
17
100
AcDbEntity
  8
DIMENSION
100
AcDbLine
 10
47000.0
 20
-19000.0
 30
0.0
 11
46600.0
 21
-19400.0
 31
0.0
  0
LINE
  5
EB
330
17
100
AcDbEntity
  8
DIMENSION
100
AcDbLine
 10
47000.0
 20
-19000.0
 30
0.0
 11
46600.0
 21
-18600.0
 31
0.0
  0
TEXT
  5
EC
330
17
100
AcDbEntity
  8
TEXT
100
AcDbText
 10
40250.0
 20
-19700.0
 30
0.0
 40
500.0
  1
(13.50m)
 11
40250.0
 21
-19700.0
 31
0.0
100
AcDbText
  0
TEXT
  5
ED
330
17
100
AcDbEntity
  8
TEXT
100
AcDbText
 10
0.0
 20
-21000.0
 30
0.0
 40
500.0
  1
AP
 11
0.0
 21
-21000.0
 31
0.0
100
AcDbText
  0
TEXT
  5
EE
330
17
100
AcDbEntity
  8
TEXT
100
AcDbText
 10
177000.0
 20
-21000.0
 30
0.0
 40
500.0
  1
FP
 11
177000.0
 21
-21000.0
 31
0.0
100
AcDbText
  0
LINE
  5
EF
330
17
100
AcDbEntity
  8
DIMENSION
100
AcDbLine
 10
0.0
 20
-23000.0
 30
0.0
 11
177000.0
 21
-23000.0
 31
0.0
  0
LINE
  5
F0
330
17
100
AcDbEntity
  8
DIMENSION
100
AcDbLine
 10
0.0
 20
-14000.0
 30
0.0
 11
0.0
 21
-23300.0
 31
0.0
  0
LINE
  5
F1
330
17
100
AcDbEntity
  8
DIMENSION
100
AcDbLine
 10
177000.0
 20
-14000.0
 30
0.0
 11
177000.0
 21
-23300.0
 31
0.0
  0
LINE
  5
F2
330
17
100
AcDbEntity
  8
DIMENSION
100
AcDbLine
 10
0.0
 20
-23000.0
 30
0.0
 11
400.0
 21
-23400.0
 31
0.0
  0
LINE
  5
F3
330
17
100
AcDbEntity
  8
DIMENSION
100
AcDbLine
 10
0.0
 20
-23000.0
 30
0.0
 11
400.0
 21
-22600.0
 31
0.0
  0
LINE
  5
F4
330
17
100
AcDbEntity
  8
DIMENSION
100
AcDbLine
 10
177000.0
 20
-23000.0
 30
0.0
 11
176600.0
 21
-23400.0
 31
0.0
  0
LINE
  5
F5
330
17
100
AcDbEntity
  8
DIMENSION
100
AcDbLine
 10
177000.0
 20
-23000.0
 30
0.0
 11
176600.0
 21
-22600.0
 31
0.0
  0
TEXT
  5
F6
330
17
100
AcDbEntity
  8
TEXT
100
AcDbText
 10
88500.0
 20
-23700.0
 30
0.0
 40
500.0
  1
LBP = 177m
 11
88500.0
 21
-23700.0
 31
0.0
100
AcDbText
  0
LINE
  5
F7
330
17
100
AcDbEntity
  8
CENTERLINE
100
AcDbLine
 10
-5000.0
 20
-40000.0
 30
0.0
 11
182000.0
 21
-40000.0
 31
0.0
  0
LWPOLYLINE
  5
F8
330
17
100
AcDbEntity
  8
HULL
100
AcDbPolyline
 90
200
 70
0
 10
-5000.0
 20
-37666.666666666664
 10
-4060.3015075376884
 20
-37729.31323283082
 10
-3120.603015075377
 20
-37791.959798994976
 10
-2180.904522613065
 20
-37854.60636515913
 10
-1241.2060301507536
 20
-37917.25293132328
 10
-301.5075376884424
 20
-37979.89949748744
 10
638.1909547738696
 20
-38042.54606365159
 10
1577.8894472361808
 20
-38105.19262981575
 10
2517.587939698493
 20
-38167.8391959799
 10
3457.286432160805
 20
-38230.48576214405
 10
4396.984924623115
 20
-38293.13232830821
 10
5336.683417085427
 20
-38355.778894472365
 10
6276.381909547739
 20
-38418.425460636514
 10
7216.0804020100495
 20
-38481.07202680067
 10
8155.778894472362
 20
-38543.718592964826
 10
9095.477386934674
 20
-38606.36515912898
 10
10035.175879396986
 20
-38669.01172529313
 10
10974.874371859296
 20
-38731.65829145729
 10
11914.57286432161
 20
-38794.30485762144
 10
12854.27135678392
 20
-38856.95142378559
 10
13793.96984924623
 20
-38919.59798994975
 10
14733.668341708544
 20
-38982.2445561139
 10
15673.366834170854
 20
-39044.89112227806
 10
16613.065326633165
 20
-39107.53768844221
 10
17552.76381909548
 20
-39170.18425460636
 10
18492.46231155779
 20
-39232.83082077052
 10
19432.1608040201
 20
-39295.477386934675
 10
20371.859296482413
 20
-39358.123953098824
 10
21311.557788944723
 20
-39420.77051926298
 10
22251.256281407033
 20
-39483.417085427136
 10
23190.954773869347
 20
-39546.06365159129
 10
24130.653266331658
 20
-39608.71021775544
 10
25070.35175879397
 20
-39671.3567839196
 10
26010.05025125628
 20
-39734.00335008375
 10
26949.748743718592
 20
-39796.64991624791
 10
27889.447236180902
 20
-39859.29648241206
 10
28829.14572864322
 20
-39921.94304857621
 10
29768.84422110553
 20
-39984.58961474037
 10
30708.54271356784
 20
-40000.0
 10
31648.24120603015
 20
-40000.0
 10
32587.93969849246
 20
-40000.0
 10
33527.63819095477
 20
-40000.0
 10
34467.33668341709
 20
-40000.0
 10
35407.0351758794
 20
-40000.0
 10
36346.73366834171
 20
-40000.0
 10
37286.43216080402
 20
-40000.0
 10
38226.13065326633
 20
-40000.0
 10
39165.82914572865
 20
-40000.0
 10
40105.52763819096
 20
-40000.0
 10
41045.22613065327
 20
-40000.0
 10
41984.92462311558
 20
-40000.0
 10
42924.62311557789
 20
-40000.0
 10
43864.3216080402
 20
-40000.0
 10
44804.020100502516
 20
-40000.0
 10
45743.718592964826
 20
-40000.0
 10
46683.417085427136
 20
-40000.0
 10
47623.115577889446
 20
-40000.0
 10
48562.81407035176
 20
-40000.0
 10
49502.51256281407
 20
-40000.0
 10
50442.211055276384
 20
-40000.0
 10
51381.909547738695
 20
-40000.0
 10
52321.608040201005
 20
-40000.0
 10
53261.306532663315
 20
-40000.0
 10
54201.005025125625
 20
-40000.0
 10
55140.70351758794
 20
-40000.0
 10
56080.40201005025
 20
-40000.0
 10
57020.10050251256
 20
-40000.0
 10
57959.79899497487
 20
-40000.0
 10
58899.497487437184
 20
-40000.0
 10
59839.195979899494
 20
-40000.0
 10
60778.894472361804
 20
-40000.0
 10
61718.592964824114
 20
-40000.0
 10
62658.29145728644
 20
-40000.0
 10
63597.98994974875
 20
-40000.0
 10
64537.68844221106
 20
-40000.0
 10
65477.38693467337
 20
-40000.0
 10
66417.08542713568
 20
-40000.0
 10
67356.78391959799
 20
-40000.0
 10
68296.4824120603
 20
-40000.0
 10
69236.18090452261
 20
-40000.0
 10
70175.87939698492
 20
-40000.0
 10
71115.57788944723
 20
-40000.0
 10
72055.27638190954
 20
-40000.0
 10
72994.97487437187
 20
-40000.0
 10
73934.67336683418
 20
-40000.0
 10
74874.37185929649
 20
-40000.0
 10
75814.0703517588
 20
-40000.0
 10
76753.76884422111
 20
-40000.0
 10
77693.46733668342
 20
-40000.0
 10
78633.16582914573
 20
-40000.0
 10
79572.86432160804
 20
-40000.0
 10
80512.56281407035
 20
-40000.0
 10
81452.26130653266
 20
-40000.0
 10
82391.95979899497
 20
-40000.0
 10
83331.6582914573
 20
-40000.0
 10
84271.3567839196
 20
-40000.0
 10
85211.05527638191
 20
-40000.0
 10
86150.75376884422
 20
-40000.0
 10
87090.45226130653
 20
-40000.0
 10
88030.15075376884
 20
-40000.0
 10
88969.84924623116
 20
-40000.0
 10
89909.54773869347
 20
-40000.0
 10
90849.24623115578
 20
-40000.0
 10
91788.94472361809
 20
-40000.0
 10
92728.6432160804
 20
-40000.0
 10
93668.3417085427
 20
-40000.0
 10
94608.04020100503
 20
-40000.0
 10
95547.73869346734
 20
-40000.0
 10
96487.43718592965
 20
-40000.0
 10
97427.13567839196
 20
-40000.0
 10
98366.83417085427
 20
-40000.0
 10
99306.53266331658
 20
-40000.0
 10
100246.23115577889
 20
-40000.0
 10
101185.9296482412
 20
-40000.0
 10
102125.62814070351
 20
-40000.0
 10
103065.32663316582
 20
-40000.0
 10
104005.02512562813
 20
-40000.0
 10
104944.72361809046
 20
-40000.0
 10
105884.42211055277
 20
-40000.0
 10
106824.12060301508
 20
-40000.0
 10
107763.81909547739
 20
-40000.0
 10
108703.5175879397
 20
-40000.0
 10
109643.21608040201
 20
-40000.0
 10
110582.91457286432
 20
-40000.0
 10
111522.61306532663
 20
-40000.0
 10
112462.31155778894
 20
-40000.0
 10
113402.01005025125
 20
-40000.0
 10
114341.70854271356
 20
-40000.0
 10
115281.40703517589
 20
-40000.0
 10
116221.1055276382
 20
-40000.0
 10
117160.8040201005
 20
-40000.0
 10
118100.50251256282
 20
-40000.0
 10
119040.20100502513
 20
-40000.0
 10
119979.89949748744
 20
-40000.0
 10
120919.59798994975
 20
-40000.0
 10
121859.29648241206
 20
-40000.0
 10
122798.99497487437
 20
-40000.0
 10
123738.69346733668
 20
-40000.0
 10
124678.39195979899
 20
-40000.0
 10
125618.09045226131
 20
-40000.0
 10
126557.78894472361
 20
-40000.0
 10
127497.48743718592
 20
-40000.0
 10
128437.18592964823
 20
-40000.0
 10
129376.88442211054
 20
-40000.0
 10
130316.58291457288
 20
-40000.0
 10
131256.2814070352
 20
-40000.0
 10
132195.9798994975
 20
-40000.0
 10
133135.6783919598
 20
-40000.0
 10
134075.37688442212
 20
-40000.0
 10
135015.07537688443
 20
-40000.0
 10
135954.77386934674
 20
-40000.0
 10
136894.47236180905
 20
-40000.0
 10
137834.17085427136
 20
-40000.0
 10
138773.86934673367
 20
-40000.0
 10
139713.56783919598
 20
-40000.0
 10
140653.2663316583
 20
-40000.0
 10
141592.9648241206
 20
-40000.0
 10
142532.6633165829
 20
-40000.0
 10
143472.36180904522
 20
-40000.0
 10
144412.06030150753
 20
-40000.0
 10
145351.75879396984
 20
-40000.0
 10
146291.45728643215
 20
-40000.0
 10
147231.15577889446
 20
-40000.0
 10
148170.85427135677
 20
-40000.0
 10
149110.55276381908
 20
-40000.0
 10
150050.2512562814
 20
-40000.0
 10
150989.94974874373
 20
-40000.0
 10
151929.64824120604
 20
-40000.0
 10
152869.34673366835
 20
-40000.0
 10
153809.04522613066
 20
-40000.0
 10
154748.74371859297
 20
-40000.0
 10
155688.44221105528
 20
-40000.0
 10
156628.1407035176
 20
-40000.0
 10
157567.8391959799
 20
-40000.0
 10
158507.53768844221
 20
-40000.0
 10
159447.23618090453
 20
-40000.0
 10
160386.93467336684
 20
-39941.959798994976
 10
161326.63316582915
 20
-39801.005025125625
 10
162266.33165829146
 20
-39660.05025125628
 10
163206.03015075377
 20
-39519.09547738694
 10
164145.72864321608
 20
-39378.14070351759
 10
165085.4271356784
 20
-39237.18592964824
 10
166025.1256281407
 20
-39096.23115577889
 10
166964.824120603
 20
-38955.27638190955
 10
167904.52261306532
 20
-38814.321608040205
 10
168844.22110552763
 20
-38673.366834170854
 10
169783.91959798994
 20
-38532.41206030151
 10
170723.61809045225
 20
-38391.45728643216
 10
171663.3165829146
 20
-38250.50251256281
 10
172603.0150753769
 20
-38109.547738693465
 10
173542.7135678392
 20
-37968.59296482412
 10
174482.41206030152
 20
-37827.63819095477
 10
175422.11055276383
 20
-37686.68341708543
 10
176361.80904522614
 20
-37545.728643216076
 10
177301.50753768845
 20
-37404.77386934673
 10
178241.20603015076
 20
-37263.81909547739
 10
179180.90452261307
 20
-37122.86432160804
 10
180120.60301507538
 20
-36981.909547738695
 10
181060.3015075377
 20
-36840.95477386934
 10
182000.0
 20
-36700.0
  0
LINE
  5
F9
330
17
100
AcDbEntity
  8
HIDDEN
100
AcDbLine
 10
21000.0
 20
-38000.0
 30
0.0
 11
168500.0
 21
-38000.0
 31
0.0
  0
LWPOLYLINE
  5
FA
330
17
100
AcDbEntity
  8
HULL
100
AcDbPolyline
 90
200
 70
0
 10
-5000.0
 20
-24800.0
 10
-4060.3015075376884
 20
-24800.0
 10
-3120.603015075377
 20
-24800.0
 10
-2180.904522613065
 20
-24800.0
 10
-1241.2060301507536
 20
-24800.0
 10
-301.5075376884424
 20
-24800.0
 10
638.1909547738696
 20
-24800.0
 10
1577.8894472361808
 20
-24800.0
 10
2517.587939698493
 20
-24800.0
 10
3457.286432160805
 20
-24800.0
 10
4396.984924623115
 20
-24800.0
 10
5336.683417085427
 20
-24800.0
 10
6276.381909547739
 20
-24800.0
 10
7216.0804020100495
 20
-24800.0
 10
8155.778894472362
 20
-24800.0
 10
9095.477386934674
 20
-24800.0
 10
10035.175879396986
 20
-24800.0
 10
10974.874371859296
 20
-24800.0
 10
11914.57286432161
 20
-24800.0
 10
12854.27135678392
 20
-24800.0
 10
13793.96984924623
 20
-24800.0
 10
14733.668341708544
 20
-24800.0
 10
15673.366834170854
 20
-24800.0
 10
16613.065326633165
 20
-24800.0
 10
17552.76381909548
 20
-24800.0
 10
18492.46231155779
 20
-24800.0
 10
19432.1608040201
 20
-24800.0
 10
20371.859296482413
 20
-24800.0
 10
21311.557788944723
 20
-24800.0
 10
22251.256281407033
 20
-24800.0
 10
23190.954773869347
 20
-24800.0
 10
24130.653266331658
 20
-24800.0
 10
25070.35175879397
 20
-24800.0
 10
26010.05025125628
 20
-24800.0
 10
26949.748743718592
 20
-24800.0
 10
27889.447236180902
 20
-24800.0
 10
28829.14572864322
 20
-24800.0
 10
29768.84422110553
 20
-24800.0
 10
30708.54271356784
 20
-24800.0
 10
31648.24120603015
 20
-24800.0
 10
32587.93969849246
 20
-24800.0
 10
33527.63819095477
 20
-24800.0
 10
34467.33668341709
 20
-24800.0
 10
35407.0351758794
 20
-24800.0
 10
36346.73366834171
 20
-24800.0
 10
37286.43216080402
 20
-24800.0
 10
38226.13065326633
 20
-24800.0
 10
39165.82914572865
 20
-24800.0
 10
40105.52763819096
 20
-24800.0
 10
41045.22613065327
 20
-24800.0
 10
41984.92462311558
 20
-24800.0
 10
42924.62311557789
 20
-24800.0
 10
43864.3216080402
 20
-24800.0
 10
44804.020100502516
 20
-24800.0
 10
45743.718592964826
 20
-24800.0
 10
46683.417085427136
 20
-24800.0
 10
47623.115577889446
 20
-24800.0
 10
48562.81407035176
 20
-24800.0
 10
49502.51256281407
 20
-24800.0
 10
50442.211055276384
 20
-24800.0
 10
51381.909547738695
 20
-24800.0
 10
52321.608040201005
 20
-24800.0
 10
53261.306532663315
 20
-24800.0
 10
54201.005025125625
 20
-24800.0
 10
55140.70351758794
 20
-24800.0
 10
56080.40201005025
 20
-24800.0
 10
57020.10050251256
 20
-24800.0
 10
57959.79899497487
 20
-24800.0
 10
58899.497487437184
 20
-24800.0
 10
59839.195979899494
 20
-24800.0
 10
60778.894472361804
 20
-24800.0
 10
61718.592964824114
 20
-24800.0
 10
62658.29145728644
 20
-24800.0
 10
63597.98994974875
 20
-24800.0
 10
64537.68844221106
 20
-24800.0
 10
65477.38693467337
 20
-24800.0
 10
66417.08542713568
 20
-24800.0
 10
67356.78391959799
 20
-24800.0
 10
68296.4824120603
 20
-24800.0
 10
69236.18090452261
 20
-24800.0
 10
70175.87939698492
 20
-24800.0
 10
71115.57788944723
 20
-24800.0
 10
72055.27638190954
 20
-24800.0
 10
72994.97487437187
 20
-24800.0
 10
73934.67336683418
 20
-24800.0
 10
74874.37185929649
 20
-24800.0
 10
75814.0703517588
 20
-24800.0
 10
76753.76884422111
 20
-24800.0
 10
77693.46733668342
 20
-24800.0
 10
78633.16582914573
 20
-24800.0
 10
79572.86432160804
 20
-24800.0
 10
80512.56281407035
 20
-24800.0
 10
81452.26130653266
 20
-24800.0
 10
82391.95979899497
 20
-24800.0
 10
83331.6582914573
 20
-24800.0
 10
84271.3567839196
 20
-24800.0
 10
85211.05527638191
 20
-24800.0
 10
86150.75376884422
 20
-24800.0
 10
87090.45226130653
 20
-24800.0
 10
88030.15075376884
 20
-24800.0
 10
88969.84924623116
 20
-24800.0
 10
89909.54773869347
 20
-24800.0
 10
90849.24623115578
 20
-24800.0
 10
91788.94472361809
 20
-24800.0
 10
92728.6432160804
 20
-24800.0
 10
93668.3417085427
 20
-24800.0
 10
94608.04020100503
 20
-24800.0
 10
95547.73869346734
 20
-24800.0
 10
96487.43718592965
 20
-24800.0
 10
97427.13567839196
 20
-24800.0
 10
98366.83417085427
 20
-24800.0
 10
99306.53266331658
 20
-24800.0
 10
100246.23115577889
 20
-24800.0
 10
101185.9296482412
 20
-24800.0
 10
102125.62814070351
 20
-24800.0
 10
103065.32663316582
 20
-24800.0
 10
104005.02512562813
 20
-24800.0
 10
104944.72361809046
 20
-24800.0
 10
105884.42211055277
 20
-24800.0
 10
106824.12060301508
 20
-24800.0
 10
107763.81909547739
 20
-24800.0
 10
108703.5175879397
 20
-24800.0
 10
109643.21608040201
 20
-24800.0
 10
110582.91457286432
 20
-24800.0
 10
111522.61306532663
 20
-24800.0
 10
112462.31155778894
 20
-24800.0
 10
113402.01005025125
 20
-24800.0
 10
114341.70854271356
 20
-24800.0
 10
115281.40703517589
 20
-24800.0
 10
116221.1055276382
 20
-24800.0
 10
117160.8040201005
 20
-24800.0
 10
118100.50251256282
 20
-24800.0
 10
119040.20100502513
 20
-24800.0
 10
119979.89949748744
 20
-24800.0
 10
120919.59798994975
 20
-24800.0
 10
121859.29648241206
 20
-24800.0
 10
122798.99497487437
 20
-24800.0
 10
123738.69346733668
 20
-24800.0
 10
124678.39195979899
 20
-24800.0
 10
125618.09045226131
 20
-24800.0
 10
126557.78894472361
 20
-24800.0
 10
127497.48743718592
 20
-24800.0
 10
128437.18592964823
 20
-24800.0
 10
129376.88442211054
 20
-24800.0
 10
130316.58291457288
 20
-24800.0
 10
131256.2814070352
 20
-24800.0
 10
132195.9798994975
 20
-24800.0
 10
133135.6783919598
 20
-24800.0
 10
134075.37688442212
 20
-24800.0
 10
135015.07537688443
 20
-24800.0
 10
135954.77386934674
 20
-24800.0
 10
136894.47236180905
 20
-24800.0
 10
137834.17085427136
 20
-24800.0
 10
138773.86934673367
 20
-24800.0
 10
139713.56783919598
 20
-24800.0
 10
140653.2663316583
 20
-24800.0
 10
141592.9648241206
 20
-24800.0
 10
142532.6633165829
 20
-24800.0
 10
143472.36180904522
 20
-24800.0
 10
144412.06030150753
 20
-24800.0
 10
145351.75879396984
 20
-24800.0
 10
146291.45728643215
 20
-24800.0
 10
147231.15577889446
 20
-24800.0
 10
148170.85427135677
 20
-24800.0
 10
149110.55276381908
 20
-24800.0
 10
150050.2512562814
 20
-24798.994974874375
 10
150989.94974874373
 20
-24780.201005025127
 10
151929.64824120604
 20
-24761.40703517588
 10
152869.34673366835
 20
-24742.613065326634
 10
153809.04522613066
 20
-24723.81909547739
 10
154748.74371859297
 20
-24705.02512562814
 10
155688.44221105528
 20
-24686.231155778893
 10
156628.1407035176
 20
-24667.437185929648
 10
157567.8391959799
 20
-24648.643216080403
 10
158507.53768844221
 20
-24629.849246231155
 10
159447.23618090453
 20
-24611.055276381907
 10
160386.93467336684
 20
-24592.261306532666
 10
161326.63316582915
 20
-24573.467336683418
 10
162266.33165829146
 20
-24554.67336683417
 10
163206.03015075377
 20
-24535.879396984925
 10
164145.72864321608
 20
-24517.08542713568
 10
165085.4271356784
 20
-24498.291457286432
 10
166025.1256281407
 20
-24479.497487437184
 10
166964.824120603
 20
-24460.70351758794
 10
167904.52261306532
 20
-24441.909547738695
 10
168844.22110552763
 20
-24423.115577889446
 10
169783.91959798994
 20
-24404.3216080402
 10
170723.61809045225
 20
-24385.527638190957
 10
171663.3165829146
 20
-24366.73366834171
 10
172603.0150753769
 20
-24347.93969849246
 10
173542.7135678392
 20
-24329.145728643216
 10
174482.41206030152
 20
-24310.35175879397
 10
175422.11055276383
 20
-24291.557788944723
 10
176361.80904522614
 20
-24272.763819095475
 10
177301.50753768845
 20
-24253.96984924623
 10
178241.20603015076
 20
-24235.175879396986
 10
179180.90452261307
 20
-24216.381909547737
 10
180120.60301507538
 20
-24197.587939698493
 10
181060.3015075377
 20
-24178.79396984925
 10
182000.0
 20
-24160.0
  0
LINE
  5
FB
330
17
100
AcDbEntity
  8
ANNOTATION
100
AcDbLine
 10
0.0
 20
-30500.0
 30
0.0
 11
177000.0
 21
-30500.0
 31
0.0
  0
TEXT
  5
FC
330
17
100
AcDbEntity
  8
ANNOTATION
100
AcDbText
 10
178500.0
 20
-30500.0
 30
0.0
 40
400.0
  1
T=9.5m
 11
178500.0
 21
-30500.0
 31
0.0
100
AcDbText
  0
LINE
  5
FD
330
17
100
AcDbEntity
  8
BULKHEAD
100
AcDbLine
 10
33500.0
 20
-40000.0
 30
0.0
 11
33500.0
 21
-24800.0
 31
0.0
  0
LINE
  5
FE
330
17
100
AcDbEntity
  8
BULKHEAD
100
AcDbLine
 10
47000.0
 20
-40000.0
 30
0.0
 11
47000.0
 21
-24800.0
 31
0.0
  0
LINE
  5
FF
330
17
100
AcDbEntity
  8
BULKHEAD
100
AcDbLine
 10
60500.0
 20
-40000.0
 30
0.0
 11
60500.0
 21
-24800.0
 31
0.0
  0
LINE
  5
100
330
17
100
AcDbEntity
  8
BULKHEAD
100
AcDbLine
 10
74000.0
 20
-40000.0
 30
0.0
 11
74000.0
 21
-24800.0
 31
0.0
  0
LINE
  5
101
330
17
100
AcDbEntity
  8
BULKHEAD
100
AcDbLine
 10
87500.0
 20
-40000.0
 30
0.0
 11
87500.0
 21
-24800.0
 31
0.0
  0
LINE
  5
102
330
17
100
AcDbEntity
  8
BULKHEAD
100
AcDbLine
 10
101000.0
 20
-40000.0
 30
0.0
 11
101000.0
 21
-24800.0
 31
0.0
  0
LINE
  5
103
330
17
100
AcDbEntity
  8
BULKHEAD
100
AcDbLine
 10
114500.0
 20
-40000.0
 30
0.0
 11
114500.0
 21
-24800.0
 31
0.0
  0
LINE
  5
104
330
17
100
AcDbEntity
  8
BULKHEAD
100
AcDbLine
 10
128000.0
 20
-40000.0
 30
0.0
 11
128000.0
 21
-24800.0
 31
0.0
  0
LINE
  5
105
330
17
100
AcDbEntity
  8
BULKHEAD
100
AcDbLine
 10
141500.0
 20
-40000.0
 30
0.0
 11
141500.0
 21
-24800.0
 31
0.0
  0
LINE
  5
106
330
17
100
AcDbEntity
  8
BULKHEAD
100
AcDbLine
 10
155000.0
 20
-40000.0
 30
0.0
 11
155000.0
 21
-24800.0
 31
0.0
  0
LINE
  5
107
330
17
100
AcDbEntity
  8
BULKHEAD
100
AcDbLine
 10
168500.0
 20
-40000.0
 30
0.0
 11
168500.0
 21
-24800.0
 31
0.0
  0
TEXT
  5
108
330
17
100
AcDbEntity
  8
TEXT
100
AcDbText
 10
40250.0
 20
-32400.0
 30
0.0
 40
450.0
  1
COT10
 50
90.0
 11
40250.0
 21
-32400.0
 31
0.0
100
AcDbText
  0
TEXT
  5
109
330
17
100
AcDbEntity
  8
TEXT
100
AcDbText
 10
53750.0
 20
-32400.0
 30
0.0
 40
450.0
  1
COT9
 50
90.0
 11
53750.0
 21
-32400.0
 31
0.0
100
AcDbText
  0
TEXT
  5
10A
330
17
100
AcDbEntity
  8
TEXT
100
AcDbText
 10
67250.0
 20
-32400.0
 30
0.0
 40
450.0
  1
COT8
 50
90.0
 11
67250.0
 21
-32400.0
 31
0.0
100
AcDbText
  0
TEXT
  5
10B
330
17
100
AcDbEntity
  8
TEXT
100
AcDbText
 10
80750.0
 20
-32400.0
 30
0.0
 40
450.0
  1
COT7
 50
90.0
 11
80750.0
 21
-32400.0
 31
0.0
100
AcDbText
  0
TEXT
  5
10C
330
17
100
AcDbEntity
  8
TEXT
100
AcDbText
 10
94250.0
 20
-32400.0
 30
0.0
 40
450.0
  1
COT6
 50
90.0
 11
94250.0
 21
-32400.0
 31
0.0
100
AcDbText
  0
TEXT
  5
10D
330
17
100
AcDbEntity
  8
TEXT
100
AcDbText
 10
107750.0
 20
-32400.0
 30
0.0
 40
450.0
  1
COT5
 50
90.0
 11
107750.0
 21
-32400.0
 31
0.0
100
AcDbText
  0
TEXT
  5
10E
330
17
100
AcDbEntity
  8
TEXT
100
AcDbText
 10
121250.0
 20
-32400.0
 30
0.0
 40
450.0
  1
COT4
 50
90.0
 11
121250.0
 21
-32400.0
 31
0.0
100
AcDbText
  0
TEXT
  5
10F
330
17
100
AcDbEntity
  8
TEXT
100
AcDbText
 10
134750.0
 20
-32400.0
 30
0.0
 40
450.0
  1
COT3
 50
90.0
 11
134750.0
 21
-32400.0
 31
0.0
100
AcDbText
  0
TEXT
  5
110
330
17
100
AcDbEntity
  8
TEXT
100
AcDbText
 10
148250.0
 20
-32400.0
 30
0.0
 40
450.0
  1
COT2
 50
90.0
 11
148250.0
 21
-32400.0
 31
0.0
100
AcDbText
  0
TEXT
  5
111
330
17
100
AcDbEntity
  8
TEXT
100
AcDbText
 10
161750.0
 20
-32400.0
 30
0.0
 40
450.0
  1
COT1
 50
90.0
 11
161750.0
 21
-32400.0
 31
0.0
100
AcDbText
  0
TEXT
  5
112
330
17
100
AcDbEntity
  8
TEXT
100
AcDbText
 10
24000.0
 20
-32400.0
 30
0.0
 40
450.0
  1
PUMP ROOM
 50
90.0
 11
24000.0
 21
-32400.0
 31
0.0
100
AcDbText
  0
TEXT
  5
113
330
17
100
AcDbEntity
  8
TEXT
100
AcDbText
 10
30250.0
 20
-32400.0
 30
0.0
 40
400.0
  1
SLOP
 50
90.0
 11
30250.0
 21
-32400.0
 31
0.0
100
AcDbText
  0
TEXT
  5
114
330
17
100
AcDbEntity
  8
TEXT
100
AcDbText
 10
10500.0
 20
-32400.0
 30
0.0
 40
450.0
  1
ENGINE ROOM
 50
90.0
 11
10500.0
 21
-32400.0
 31
0.0
100
AcDbText
  0
LINE
  5
115
330
17
100
AcDbEntity
  8
BULKHEAD
100
AcDbLine
 10
21000.0
 20
-40000.0
 30
0.0
 11
21000.0
 21
-24800.0
 31
0.0
  0
LINE
  5
116
330
17
100
AcDbEntity
  8
BULKHEAD
100
AcDbLine
 10
27000.0
 20
-40000.0
 30
0.0
 11
27000.0
 21
-24800.0
 31
0.0
  0
LINE
  5
117
330
17
100
AcDbEntity
  8
BULKHEAD
100
AcDbLine
 10
33500.0
 20
-40000.0
 30
0.0
 11
33500.0
 21
-24800.0
 31
0.0
  0
LINE
  5
118
330
17
100
AcDbEntity
  8
DIMENSION
100
AcDbLine
 10
0.0
 20
-40000.0
 30
0.0
 11
0.0
 21
-42500.0
 31
0.0
  0
TEXT
  5
119
330
17
100
AcDbEntity
  8
DIMENSION
100
AcDbText
 10
0.0
 20
-43500.0
 30
0.0
 40
350.0
  1
Fr.0
 11
0.0
 21
-43500.0
 31
0.0
100
AcDbText
  0
LINE
  5
11A
330
17
100
AcDbEntity
  8
DIMENSION
100
AcDbLine
 10
10000.0
 20
-40000.0
 30
0.0
 11
10000.0
 21
-42500.0
 31
0.0
  0
TEXT
  5
11B
330
17
100
AcDbEntity
  8
DIMENSION
100
AcDbText
 10
10000.0
 20
-43500.0
 30
0.0
 40
350.0
  1
Fr.10
 11
10000.0
 21
-43500.0
 31
0.0
100
AcDbText
  0
LINE
  5
11C
330
17
100
AcDbEntity
  8
DIMENSION
100
AcDbLine
 10
20000.0
 20
-40000.0
 30
0.0
 11
20000.0
 21
-42500.0
 31
0.0
  0
TEXT
  5
11D
330
17
100
AcDbEntity
  8
DIMENSION
100
AcDbText
 10
20000.0
 20
-43500.0
 30
0.0
 40
350.0
  1
Fr.20
 11
20000.0
 21
-43500.0
 31
0.0
100
AcDbText
  0
LINE
  5
11E
330
17
100
AcDbEntity
  8
DIMENSION
100
AcDbLine
 10
30000.0
 20
-40000.0
 30
0.0
 11
30000.0
 21
-42500.0
 31
0.0
  0
TEXT
  5
11F
330
17
100
AcDbEntity
  8
DIMENSION
100
AcDbText
 10
30000.0
 20
-43500.0
 30
0.0
 40
350.0
  1
Fr.30
 11
30000.0
 21
-43500.0
 31
0.0
100
AcDbText
  0
LINE
  5
120
330
17
100
AcDbEntity
  8
DIMENSION
100
AcDbLine
 10
40000.0
 20
-40000.0
 30
0.0
 11
40000.0
 21
-42500.0
 31
0.0
  0
TEXT
  5
121
330
17
100
AcDbEntity
  8
DIMENSION
100
AcDbText
 10
40000.0
 20
-43500.0
 30
0.0
 40
350.0
  1
Fr.40
 11
40000.0
 21
-43500.0
 31
0.0
100
AcDbText
  0
LINE
  5
122
330
17
100
AcDbEntity
  8
DIMENSION
100
AcDbLine
 10
50000.0
 20
-40000.0
 30
0.0
 11
50000.0
 21
-42500.0
 31
0.0
  0
TEXT
  5
123
330
17
100
AcDbEntity
  8
DIMENSION
100
AcDbText
 10
50000.0
 20
-43500.0
 30
0.0
 40
350.0
  1
Fr.50
 11
50000.0
 21
-43500.0
 31
0.0
100
AcDbText
  0
LINE
  5
124
330
17
100
AcDbEntity
  8
DIMENSION
100
AcDbLine
 10
60000.0
 20
-40000.0
 30
0.0
 11
60000.0
 21
-42500.0
 31
0.0
  0
TEXT
  5
125
330
17
100
AcDbEntity
  8
DIMENSION
100
AcDbText
 10
60000.0
 20
-43500.0
 30
0.0
 40
350.0
  1
Fr.60
 11
60000.0
 21
-43500.0
 31
0.0
100
AcDbText
  0
LINE
  5
126
330
17
100
AcDbEntity
  8
DIMENSION
100
AcDbLine
 10
70000.0
 20
-40000.0
 30
0.0
 11
70000.0
 21
-42500.0
 31
0.0
  0
TEXT
  5
127
330
17
100
AcDbEntity
  8
DIMENSION
100
AcDbText
 10
70000.0
 20
-43500.0
 30
0.0
 40
350.0
  1
Fr.70
 11
70000.0
 21
-43500.0
 31
0.0
100
AcDbText
  0
LINE
  5
128
330
17
100
AcDbEntity
  8
DIMENSION
100
AcDbLine
 10
80000.0
 20
-40000.0
 30
0.0
 11
80000.0
 21
-42500.0
 31
0.0
  0
TEXT
  5
129
330
17
100
AcDbEntity
  8
DIMENSION
100
AcDbText
 10
80000.0
 20
-43500.0
 30
0.0
 40
350.0
  1
Fr.80
 11
80000.0
 21
-43500.0
 31
0.0
100
AcDbText
  0
LINE
  5
12A
330
17
100
AcDbEntity
  8
DIMENSION
100
AcDbLine
 10
90000.0
 20
-40000.0
 30
0.0
 11
90000.0
 21
-42500.0
 31
0.0
  0
TEXT
  5
12B
330
17
100
AcDbEntity
  8
DIMENSION
100
AcDbText
 10
90000.0
 20
-43500.0
 30
0.0
 40
350.0
  1
Fr.90
 11
90000.0
 21
-43500.0
 31
0.0
100
AcDbText
  0
LINE
  5
12C
330
17
100
AcDbEntity
  8
DIMENSION
100
AcDbLine
 10
100000.0
 20
-40000.0
 30
0.0
 11
100000.0
 21
-42500.0
 31
0.0
  0
TEXT
  5
12D
330
17
100
AcDbEntity
  8
DIMENSION
100
AcDbText
 10
100000.0
 20
-43500.0
 30
0.0
 40
350.0
  1
Fr.100
 11
100000.0
 21
-43500.0
 31
0.0
100
AcDbText
  0
LINE
  5
12E
330
17
100
AcDbEntity
  8
DIMENSION
100
AcDbLine
 10
110000.0
 20
-40000.0
 30
0.0
 11
110000.0
 21
-42500.0
 31
0.0
  0
TEXT
  5
12F
330
17
100
AcDbEntity
  8
DIMENSION
100
AcDbText
 10
110000.0
 20
-43500.0
 30
0.0
 40
350.0
  1
Fr.110
 11
110000.0
 21
-43500.0
 31
0.0
100
AcDbText
  0
LINE
  5
130
330
17
100
AcDbEntity
  8
DIMENSION
100
AcDbLine
 10
120000.0
 20
-40000.0
 30
0.0
 11
120000.0
 21
-42500.0
 31
0.0
  0
TEXT
  5
131
330
17
100
AcDbEntity
  8
DIMENSION
100
AcDbText
 10
120000.0
 20
-43500.0
 30
0.0
 40
350.0
  1
Fr.120
 11
120000.0
 21
-43500.0
 31
0.0
100
AcDbText
  0
LINE
  5
132
330
17
100
AcDbEntity
  8
DIMENSION
100
AcDbLine
 10
130000.0
 20
-40000.0
 30
0.0
 11
130000.0
 21
-42500.0
 31
0.0
  0
TEXT
  5
133
330
17
100
AcDbEntity
  8
DIMENSION
100
AcDbText
 10
130000.0
 20
-43500.0
 30
0.0
 40
350.0
  1
Fr.130
 11
130000.0
 21
-43500.0
 31
0.0
100
AcDbText
  0
LINE
  5
134
330
17
100
AcDbEntity
  8
DIMENSION
100
AcDbLine
 10
140000.0
 20
-40000.0
 30
0.0
 11
140000.0
 21
-42500.0
 31
0.0
  0
TEXT
  5
135
330
17
100
AcDbEntity
  8
DIMENSION
100
AcDbText
 10
140000.0
 20
-43500.0
 30
0.0
 40
350.0
  1
Fr.140
 11
140000.0
 21
-43500.0
 31
0.0
100
AcDbText
  0
LINE
  5
136
330
17
100
AcDbEntity
  8
DIMENSION
100
AcDbLine
 10
150000.0
 20
-40000.0
 30
0.0
 11
150000.0
 21
-42500.0
 31
0.0
  0
TEXT
  5
137
330
17
100
AcDbEntity
  8
DIMENSION
100
AcDbText
 10
150000.0
 20
-43500.0
 30
0.0
 40
350.0
  1
Fr.150
 11
150000.0
 21
-43500.0
 31
0.0
100
AcDbText
  0
LINE
  5
138
330
17
100
AcDbEntity
  8
DIMENSION
100
AcDbLine
 10
160000.0
 20
-40000.0
 30
0.0
 11
160000.0
 21
-42500.0
 31
0.0
  0
TEXT
  5
139
330
17
100
AcDbEntity
  8
DIMENSION
100
AcDbText
 10
160000.0
 20
-43500.0
 30
0.0
 40
350.0
  1
Fr.160
 11
160000.0
 21
-43500.0
 31
0.0
100
AcDbText
  0
LINE
  5
13A
330
17
100
AcDbEntity
  8
DIMENSION
100
AcDbLine
 10
170000.0
 20
-40000.0
 30
0.0
 11
170000.0
 21
-42500.0
 31
0.0
  0
TEXT
  5
13B
330
17
100
AcDbEntity
  8
DIMENSION
100
AcDbText
 10
170000.0
 20
-43500.0
 30
0.0
 40
350.0
  1
Fr.170
 11
170000.0
 21
-43500.0
 31
0.0
100
AcDbText
  0
TEXT
  5
13C
330
17
100
AcDbEntity
  8
TEXT
100
AcDbText
 10
88500.0
 20
-18800.0
 30
0.0
 40
800.0
  1
PROFILE VIEW — CARGO TANK ARRANGEMENT  (纵剖面图)
 11
88500.0
 21
-18800.0
 31
0.0
100
AcDbText
  0
LINE
  5
13D
330
17
100
AcDbEntity
  8
DIMENSION
100
AcDbLine
 10
33500.0
 20
-48000.0
 30
0.0
 11
168500.0
 21
-48000.0
 31
0.0
  0
LINE
  5
13E
330
17
100
AcDbEntity
  8
DIMENSION
100
AcDbLine
 10
33500.0
 20
-45000.0
 30
0.0
 11
33500.0
 21
-48300.0
 31
0.0
  0
LINE
  5
13F
330
17
100
AcDbEntity
  8
DIMENSION
100
AcDbLine
 10
168500.0
 20
-45000.0
 30
0.0
 11
168500.0
 21
-48300.0
 31
0.0
  0
LINE
  5
140
330
17
100
AcDbEntity
  8
DIMENSION
100
AcDbLine
 10
33500.0
 20
-48000.0
 30
0.0
 11
33900.0
 21
-48400.0
 31
0.0
  0
LINE
  5
141
330
17
100
AcDbEntity
  8
DIMENSION
100
AcDbLine
 10
33500.0
 20
-48000.0
 30
0.0
 11
33900.0
 21
-47600.0
 31
0.0
  0
LINE
  5
142
330
17
100
AcDbEntity
  8
DIMENSION
100
AcDbLine
 10
168500.0
 20
-48000.0
 30
0.0
 11
168100.0
 21
-48400.0
 31
0.0
  0
LINE
  5
143
330
17
100
AcDbEntity
  8
DIMENSION
100
AcDbLine
 10
168500.0
 20
-48000.0
 30
0.0
 11
168100.0
 21
-47600.0
 31
0.0
  0
TEXT
  5
144
330
17
100
AcDbEntity
  8
TEXT
100
AcDbText
 10
101000.0
 20
-48700.0
 30
0.0
 40
500.0
  1
Cargo Area = 135m
 11
101000.0
 21
-48700.0
 31
0.0
100
AcDbText
  0
LINE
  5
145
330
17
100
AcDbEntity
  8
DIMENSION
100
AcDbLine
 10
30500.0
 20
-40000.0
 30
0.0
 11
30500.0
 21
-24800.0
 31
0.0
  0
LINE
  5
146
330
17
100
AcDbEntity
  8
DIMENSION
100
AcDbLine
 10
25500.0
 20
-40000.0
 30
0.0
 11
30800.0
 21
-40000.0
 31
0.0
  0
LINE
  5
147
330
17
100
AcDbEntity
  8
DIMENSION
100
AcDbLine
 10
25500.0
 20
-24800.0
 30
0.0
 11
30800.0
 21
-24800.0
 31
0.0
  0
LINE
  5
148
330
17
100
AcDbEntity
  8
DIMENSION
100
AcDbLine
 10
30500.0
 20
-40000.0
 30
0.0
 11
30100.0
 21
-39600.0
 31
0.0
  0
LINE
  5
149
330
17
100
AcDbEntity
  8
DIMENSION
100
AcDbLine
 10
30500.0
 20
-40000.0
 30
0.0
 11
30900.0
 21
-39600.0
 31
0.0
  0
LINE
  5
14A
330
17
100
AcDbEntity
  8
DIMENSION
100
AcDbLine
 10
30500.0
 20
-24800.0
 30
0.0
 11
30100.0
 21
-25200.0
 31
0.0
  0
LINE
  5
14B
330
17
100
AcDbEntity
  8
DIMENSION
100
AcDbLine
 10
30500.0
 20
-24800.0
 30
0.0
 11
30900.0
 21
-25200.0
 31
0.0
  0
TEXT
  5
14C
330
17
100
AcDbEntity
  8
TEXT
100
AcDbText
 10
31700.0
 20
-32400.0
 30
0.0
 40
500.0
  1
D = 15.20m
 50
90.0
 11
31700.0
 21
-32400.0
 31
0.0
100
AcDbText
  0
LINE
  5
14D
330
17
100
AcDbEntity
  8
DIMENSION
100
AcDbLine
 10
25500.0
 20
-40000.0
 30
0.0
 11
25500.0
 21
-38000.0
 31
0.0
  0
LINE
  5
14E
330
17
100
AcDbEntity
  8
DIMENSION
100
AcDbLine
 10
20500.0
 20
-40000.0
 30
0.0
 11
25800.0
 21
-40000.0
 31
0.0
  0
LINE
  5
14F
330
17
100
AcDbEntity
  8
DIMENSION
100
AcDbLine
 10
20500.0
 20
-38000.0
 30
0.0
 11
25800.0
 21
-38000.0
 31
0.0
  0
LINE
  5
150
330
17
100
AcDbEntity
  8
DIMENSION
100
AcDbLine
 10
25500.0
 20
-40000.0
 30
0.0
 11
25100.0
 21
-39600.0
 31
0.0
  0
LINE
  5
151
330
17
100
AcDbEntity
  8
DIMENSION
100
AcDbLine
 10
25500.0
 20
-40000.0
 30
0.0
 11
25900.0
 21
-39600.0
 31
0.0
  0
LINE
  5
152
330
17
100
AcDbEntity
  8
DIMENSION
100
AcDbLine
 10
25500.0
 20
-38000.0
 30
0.0
 11
25100.0
 21
-38400.0
 31
0.0
  0
LINE
  5
153
330
17
100
AcDbEntity
  8
DIMENSION
100
AcDbLine
 10
25500.0
 20
-38000.0
 30
0.0
 11
25900.0
 21
-38400.0
 31
0.0
  0
TEXT
  5
154
330
17
100
AcDbEntity
  8
TEXT
100
AcDbText
 10
26700.0
 20
-39000.0
 30
0.0
 40
500.0
  1
DB=2.00m
 50
90.0
 11
26700.0
 21
-39000.0
 31
0.0
100
AcDbText
  0
LWPOLYLINE
  5
155
330
17
100
AcDbEntity
  8
HULL
100
AcDbPolyline
 90
13
 70
0
 10
210000.0
 20
-15200.0
 10
222000.0
 20
-15200.0
 10
222390.18064403225
 20
-15161.57056080646
 10
222765.36686473017
 20
-15047.759065022574
 10
223111.1404660392
 20
-14862.93922460509
 10
223414.2135623731
 20
-14614.213562373096
 10
223662.9392246051
 20
-14311.140466039205
 10
223847.75906502258
 20
-13965.36686473018
 10
223961.57056080646
 20
-13590.180644032256
 10
224000.0
 20
-13200.0
 10
224000.0
 20
-11200.0
 10
224000.0
 20
400.0
 10
210000.0
 20
600.0
  0
LWPOLYLINE
  5
156
330
17
100
AcDbEntity
  8
HULL
100
AcDbPolyline
 90
13
 70
0
 10
210000.0
 20
-15200.0
 10
198000.0
 20
-15200.0
 10
197609.81935596775
 20
-15161.57056080646
 10
197234.63313526983
 20
-15047.759065022574
 10
196888.8595339608
 20
-14862.93922460509
 10
196585.7864376269
 20
-14614.213562373096
 10
196337.0607753949
 20
-14311.140466039205
 10
196152.24093497742
 20
-13965.36686473018
 10
196038.42943919354
 20
-13590.180644032256
 10
196000.0
 20
-13200.0
 10
196000.0
 20
-11200.0
 10
196000.0
 20
400.0
 10
210000.0
 20
600.0
  0
LINE
  5
157
330
17
100
AcDbEntity
  8
HIDDEN
100
AcDbLine
 10
197500.0
 20
-13200.0
 30
0.0
 11
222500.0
 21
-13200.0
 31
0.0
  0
LINE
  5
158
330
17
100
AcDbEntity
  8
CENTERLINE
100
AcDbLine
 10
210000.0
 20
-13200.0
 30
0.0
 11
210000.0
 21
600.0
 31
0.0
  0
TEXT
  5
159
330
17
100
AcDbEntity
  8
TEXT
100
AcDbText
 10
210000.0
 20
-17200.0
 30
0.0
 40
500.0
  1
C_L
 11
210000.0
 21
-17200.0
 31
0.0
100
AcDbText
  0
LWPOLYLINE
  5
15A
330
17
100
AcDbEntity
  8
ANNOTATION
100
AcDbPolyline
 90
4
 70
1
 10
199250.0
 20
-13200.0
 10
199250.0
 20
-14000.0
 10
200750.0
 20
-14000.0
 10
200750.0
 20
-13200.0
  0
LWPOLYLINE
  5
15B
330
17
100
AcDbEntity
  8
ANNOTATION
100
AcDbPolyline
 90
4
 70
1
 10
219250.0
 20
-13200.0
 10
219250.0
 20
-14000.0
 10
220750.0
 20
-14000.0
 10
220750.0
 20
-13200.0
  0
TEXT
  5
15C
330
17
100
AcDbEntity
  8
TEXT
100
AcDbText
 10
200000.0
 20
-15200.0
 30
0.0
 40
400.0
  1
SUCTIONWELL (S)
 11
200000.0
 21
-15200.0
 31
0.0
100
AcDbText
  0
TEXT
  5
15D
330
17
100
AcDbEntity
  8
TEXT
100
AcDbText
 10
220000.0
 20
-15200.0
 30
0.0
 40
400.0
  1
SUCTIONWELL (P)
 11
220000.0
 21
-15200.0
 31
0.0
100
AcDbText
  0
TEXT
  5
15E
330
17
100
AcDbEntity
  8
TEXT
100
AcDbText
 10
203000.0
 20
-7600.0
 30
0.0
 40
500.0
  1
COT (S)
 11
203000.0
 21
-7600.0
 31
0.0
100
AcDbText
  0
TEXT
  5
15F
330
17
100
AcDbEntity
  8
TEXT
100
AcDbText
 10
217000.0
 20
-7600.0
 30
0.0
 40
500.0
  1
COT (P)
 11
217000.0
 21
-7600.0
 31
0.0
100
AcDbText
  0
TEXT
  5
160
330
17
100
AcDbEntity
  8
TEXT
100
AcDbText
 10
210000.0
 20
-14200.0
 30
0.0
 40
400.0
  1
DOUBLE BOTTOM
 11
210000.0
 21
-14200.0
 31
0.0
100
AcDbText
  0
TEXT
  5
161
330
17
100
AcDbEntity
  8
TEXT
100
AcDbText
 10
198000.0
 20
-9200.0
 30
0.0
 40
350.0
  1
WINGBALLASTTANK
 11
198000.0
 21
-9200.0
 31
0.0
100
AcDbText
  0
TEXT
  5
162
330
17
100
AcDbEntity
  8
TEXT
100
AcDbText
 10
222000.0
 20
-9200.0
 30
0.0
 40
350.0
  1
WINGBALLASTTANK
 11
222000.0
 21
-9200.0
 31
0.0
100
AcDbText
  0
TEXT
  5
163
330
17
100
AcDbEntity
  8
TEXT
100
AcDbText
 10
210000.0
 20
5400.0
 30
0.0
 40
800.0
  1
TYPICAL MIDSHIP SECTION  (典型横剖面图)
 11
210000.0
 21
5400.0
 31
0.0
100
AcDbText
  0
LINE
  5
164
330
17
100
AcDbEntity
  8
DIMENSION
100
AcDbLine
 10
231000.0
 20
-15200.0
 30
0.0
 11
231000.0
 21
0.0
 31
0.0
  0
LINE
  5
165
330
17
100
AcDbEntity
  8
DIMENSION
100
AcDbLine
 10
229000.0
 20
-15200.0
 30
0.0
 11
231300.0
 21
-15200.0
 31
0.0
  0
LINE
  5
166
330
17
100
AcDbEntity
  8
DIMENSION
100
AcDbLine
 10
229000.0
 20
0.0
 30
0.0
 11
231300.0
 21
0.0
 31
0.0
  0
LINE
  5
167
330
17
100
AcDbEntity
  8
DIMENSION
100
AcDbLine
 10
231000.0
 20
-15200.0
 30
0.0
 11
230600.0
 21
-14800.0
 31
0.0
  0
LINE
  5
168
330
17
100
AcDbEntity
  8
DIMENSION
100
AcDbLine
 10
231000.0
 20
-15200.0
 30
0.0
 11
231400.0
 21
-14800.0
 31
0.0
  0
LINE
  5
169
330
17
100
AcDbEntity
  8
DIMENSION
100
AcDbLine
 10
231000.0
 20
0.0
 30
0.0
 11
230600.0
 21
-400.0
 31
0.0
  0
LINE
  5
16A
330
17
100
AcDbEntity
  8
DIMENSION
100
AcDbLine
 10
231000.0
 20
0.0
 30
0.0
 11
231400.0
 21
-400.0
 31
0.0
  0
TEXT
  5
16B
330
17
100
AcDbEntity
  8
TEXT
100
AcDbText
 10
232200.0
 20
-7600.0
 30
0.0
 40
500.0
  1
D=15.20m
 50
90.0
 11
232200.0
 21
-7600.0
 31
0.0
100
AcDbText
  0
LINE
  5
16C
330
17
100
AcDbEntity
  8
DIMENSION
100
AcDbLine
 10
236000.0
 20
-15200.0
 30
0.0
 11
236000.0
 21
-13200.0
 31
0.0
  0
LINE
  5
16D
330
17
100
AcDbEntity
  8
DIMENSION
100
AcDbLine
 10
234000.0
 20
-15200.0
 30
0.0
 11
236300.0
 21
-15200.0
 31
0.0
  0
LINE
  5
16E
330
17
100
AcDbEntity
  8
DIMENSION
100
AcDbLine
 10
234000.0
 20
-13200.0
 30
0.0
 11
236300.0
 21
-13200.0
 31
0.0
  0
LINE
  5
16F
330
17
100
AcDbEntity
  8
DIMENSION
100
AcDbLine
 10
236000.0
 20
-15200.0
 30
0.0
 11
235600.0
 21
-14800.0
 31
0.0
  0
LINE
  5
170
330
17
100
AcDbEntity
  8
DIMENSION
100
AcDbLine
 10
236000.0
 20
-15200.0
 30
0.0
 11
236400.0
 21
-14800.0
 31
0.0
  0
LINE
  5
171
330
17
100
AcDbEntity
  8
DIMENSION
100
AcDbLine
 10
236000.0
 20
-13200.0
 30
0.0
 11
235600.0
 21
-13600.0
 31
0.0
  0
LINE
  5
172
330
17
100
AcDbEntity
  8
DIMENSION
100
AcDbLine
 10
236000.0
 20
-13200.0
 30
0.0
 11
236400.0
 21
-13600.0
 31
0.0
  0
TEXT
  5
173
330
17
100
AcDbEntity
  8
TEXT
100
AcDbText
 10
237200.0
 20
-14200.0
 30
0.0
 40
500.0
  1
DB=2.00m
 50
90.0
 11
237200.0
 21
-14200.0
 31
0.0
100
AcDbText
  0
LINE
  5
174
330
17
100
AcDbEntity
  8
DIMENSION
100
AcDbLine
 10
210000.0
 20
-22200.0
 30
0.0
 11
224000.0
 21
-22200.0
 31
0.0
  0
LINE
  5
175
330
17
100
AcDbEntity
  8
DIMENSION
100
AcDbLine
 10
210000.0
 20
-19200.0
 30
0.0
 11
210000.0
 21
-22500.0
 31
0.0
  0
LINE
  5
176
330
17
100
AcDbEntity
  8
DIMENSION
100
AcDbLine
 10
224000.0
 20
-19200.0
 30
0.0
 11
224000.0
 21
-22500.0
 31
0.0
  0
LINE
  5
177
330
17
100
AcDbEntity
  8
DIMENSION
100
AcDbLine
 10
210000.0
 20
-22200.0
 30
0.0
 11
210400.0
 21
-22600.0
 31
0.0
  0
LINE
  5
178
330
17
100
AcDbEntity
  8
DIMENSION
100
AcDbLine
 10
210000.0
 20
-22200.0
 30
0.0
 11
210400.0
 21
-21800.0
 31
0.0
  0
LINE
  5
179
330
17
100
AcDbEntity
  8
DIMENSION
100
AcDbLine
 10
224000.0
 20
-22200.0
 30
0.0
 11
223600.0
 21
-22600.0
 31
0.0
  0
LINE
  5
17A
330
17
100
AcDbEntity
  8
DIMENSION
100
AcDbLine
 10
224000.0
 20
-22200.0
 30
0.0
 11
223600.0
 21
-21800.0
 31
0.0
  0
TEXT
  5
17B
330
17
100
AcDbEntity
  8
TEXT
100
AcDbText
 10
217000.0
 20
-22900.0
 30
0.0
 40
500.0
  1
B/2=14.0m
 11
217000.0
 21
-22900.0
 31
0.0
100
AcDbText
  0
LINE
  5
17C
330
17
100
AcDbEntity
  8
DIMENSION
100
AcDbLine
 10
219250.0
 20
-16000.0
 30
0.0
 11
220750.0
 21
-16000.0
 31
0.0
  0
LINE
  5
17D
330
17
100
AcDbEntity
  8
DIMENSION
100
AcDbLine
 10
219250.0
 20
-14000.0
 30
0.0
 11
219250.0
 21
-16300.0
 31
0.0
  0
LINE
  5
17E
330
17
100
AcDbEntity
  8
DIMENSION
100
AcDbLine
 10
220750.0
 20
-14000.0
 30
0.0
 11
220750.0
 21
-16300.0
 31
0.0
  0
LINE
  5
17F
330
17
100
AcDbEntity
  8
DIMENSION
100
AcDbLine
 10
219250.0
 20
-16000.0
 30
0.0
 11
219650.0
 21
-16400.0
 31
0.0
  0
LINE
  5
180
330
17
100
AcDbEntity
  8
DIMENSION
100
AcDbLine
 10
219250.0
 20
-16000.0
 30
0.0
 11
219650.0
 21
-15600.0
 31
0.0
  0
LINE
  5
181
330
17
100
AcDbEntity
  8
DIMENSION
100
AcDbLine
 10
220750.0
 20
-16000.0
 30
0.0
 11
220350.0
 21
-16400.0
 31
0.0
  0
LINE
  5
182
330
17
100
AcDbEntity
  8
DIMENSION
100
AcDbLine
 10
220750.0
 20
-16000.0
 30
0.0
 11
220350.0
 21
-15600.0
 31
0.0
  0
TEXT
  5
183
330
17
100
AcDbEntity
  8
TEXT
100
AcDbText
 10
220000.0
 20
-16700.0
 30
0.0
 40
500.0
  1
1500mm
 11
220000.0
 21
-16700.0
 31
0.0
100
AcDbText
  0
LINE
  5
184
330
17
100
AcDbEntity
  8
DIMENSION
100
AcDbLine
 10
223250.0
 20
-14000.0
 30
0.0
 11
223250.0
 21
-13200.0
 31
0.0
  0
LINE
  5
185
330
17
100
AcDbEntity
  8
DIMENSION
100
AcDbLine
 10
221750.0
 20
-14000.0
 30
0.0
 11
223550.0
 21
-14000.0
 31
0.0
  0
LINE
  5
186
330
17
100
AcDbEntity
  8
DIMENSION
100
AcDbLine
 10
221750.0
 20
-13200.0
 30
0.0
 11
223550.0
 21
-13200.0
 31
0.0
  0
LINE
  5
187
330
17
100
AcDbEntity
  8
DIMENSION
100
AcDbLine
 10
223250.0
 20
-14000.0
 30
0.0
 11
222850.0
 21
-13600.0
 31
0.0
  0
LINE
  5
188
330
17
100
AcDbEntity
  8
DIMENSION
100
AcDbLine
 10
223250.0
 20
-14000.0
 30
0.0
 11
223650.0
 21
-13600.0
 31
0.0
  0
LINE
  5
189
330
17
100
AcDbEntity
  8
DIMENSION
100
AcDbLine
 10
223250.0
 20
-13200.0
 30
0.0
 11
222850.0
 21
-13600.0
 31
0.0
  0
LINE
  5
18A
330
17
100
AcDbEntity
  8
DIMENSION
100
AcDbLine
 10
223250.0
 20
-13200.0
 30
0.0
 11
223650.0
 21
-13600.0
 31
0.0
  0
TEXT
  5
18B
330
17
100
AcDbEntity
  8
TEXT
100
AcDbText
 10
224450.0
 20
-13600.0
 30
0.0
 40
500.0
  1
800mm
 50
90.0
 11
224450.0
 21
-13600.0
 31
0.0
100
AcDbText
  0
TEXT
  5
18C
330
17
100
AcDbEntity
  8
TEXT
100
AcDbText
 10
210000.0
 20
-35000.0
 30
0.0
 40
700.0
  1
LEGEND  (图例)
 11
210000.0
 21
-35000.0
 31
0.0
100
AcDbText
  0
LINE
  5
18D
330
17
100
AcDbEntity
  8
HULL
100
AcDbLine
 10
212000.0
 20
-36000.0
 30
0.0
 11
218000.0
 21
-36000.0
 31
0.0
  0
TEXT
  5
18E
330
17
100
AcDbEntity
  8
TEXT
100
AcDbText
 10
220000.0
 20
-36000.0
 30
0.0
 40
450.0
  1
船体轮廓
 11
220000.0
 21
-36000.0
 31
0.0
100
AcDbText
  0
LINE
  5
18F
330
17
100
AcDbEntity
  8
BULKHEAD
100
AcDbLine
 10
212000.0
 20
-36900.0
 30
0.0
 11
218000.0
 21
-36900.0
 31
0.0
  0
TEXT
  5
190
330
17
100
AcDbEntity
  8
TEXT
100
AcDbText
 10
220000.0
 20
-36900.0
 30
0.0
 40
450.0
  1
横舱壁/舱壁
 11
220000.0
 21
-36900.0
 31
0.0
100
AcDbText
  0
LINE
  5
191
330
17
100
AcDbEntity
  8
CENTERLINE
100
AcDbLine
 10
212000.0
 20
-37800.0
 30
0.0
 11
218000.0
 21
-37800.0
 31
0.0
  0
TEXT
  5
192
330
17
100
AcDbEntity
  8
TEXT
100
AcDbText
 10
220000.0
 20
-37800.0
 30
0.0
 40
450.0
  1
中心线/中纵舱壁
 11
220000.0
 21
-37800.0
 31
0.0
100
AcDbText
  0
LINE
  5
193
330
17
100
AcDbEntity
  8
HIDDEN
100
AcDbLine
 10
212000.0
 20
-38700.0
 30
0.0
 11
218000.0
 21
-38700.0
 31
0.0
  0
TEXT
  5
194
330
17
100
AcDbEntity
  8
TEXT
100
AcDbText
 10
220000.0
 20
-38700.0
 30
0.0
 40
450.0
  1
内底板/隐线
 11
220000.0
 21
-38700.0
 31
0.0
100
AcDbText
  0
LINE
  5
195
330
17
100
AcDbEntity
  8
DIMENSION
100
AcDbLine
 10
212000.0
 20
-39600.0
 30
0.0
 11
218000.0
 21
-39600.0
 31
0.0
  0
TEXT
  5
196
330
17
100
AcDbEntity
  8
TEXT
100
AcDbText
 10
220000.0
 20
-39600.0
 30
0.0
 40
450.0
  1
尺寸标注
 11
220000.0
 21
-39600.0
 31
0.0
100
AcDbText
  0
LINE
  5
197
330
17
100
AcDbEntity
  8
ANNOTATION
100
AcDbLine
 10
212000.0
 20
-40500.0
 30
0.0
 11
218000.0
 21
-40500.0
 31
0.0
  0
TEXT
  5
198
330
17
100
AcDbEntity
  8
TEXT
100
AcDbText
 10
220000.0
 20
-40500.0
 30
0.0
 40
450.0
  1
标注/吸油井
 11
220000.0
 21
-40500.0
 31
0.0
100
AcDbText
  0
TEXT
  5
199
330
17
100
AcDbEntity
  8
TEXT
100
AcDbText
 10
210000.0
 20
-50000.0
 30
0.0
 40
550.0
  1
33000DWT DUAL-FUEL PRODUCT OIL TANKER
 11
210000.0
 21
-50000.0
 31
0.0
100
AcDbText
  0
TEXT
  5
19A
330
17
100
AcDbEntity
  8
TEXT
100
AcDbText
 10
210000.0
 20
-51000.0
 30
0.0
 40
550.0
  1
CARGO TANK ARRANGEMENT
 11
210000.0
 21
-51000.0
 31
0.0
100
AcDbText
  0
TEXT
  5
19B
330
17
100
AcDbEntity
  8
TEXT
100
AcDbText
 10
210000.0
 20
-52000.0
 30
0.0
 40
550.0
  1
Drawn: CAD Engineer Agent  |  Date: 2026-06-06
 11
210000.0
 21
-52000.0
 31
0.0
100
AcDbText
  0
TEXT
  5
19C
330
17
100
AcDbEntity
  8
TEXT
100
AcDbText
 10
210000.0
 20
-53000.0
 30
0.0
 40
550.0
  1
Scale: 1:1 (mm)  |  Unit: mm
 11
210000.0
 21
-53000.0
 31
0.0
100
AcDbText
  0
TEXT
  5
19D
330
17
100
AcDbEntity
  8
TEXT
100
AcDbText
 10
210000.0
 20
-55000.0
 30
0.0
 40
400.0
  1
Principal Particulars:
 11
210000.0
 21
-55000.0
 31
0.0
100
AcDbText
  0
TEXT
  5
19E
330
17
100
AcDbEntity
  8
TEXT
100
AcDbText
 10
210000.0
 20
-55700.0
 30
0.0
 40
400.0
  1
  LOA=180.00m  LBP=177.00m  B=28.00m  D=15.20m
 11
210000.0
 21
-55700.0
 31
0.0
100
AcDbText
  0
TEXT
  5
19F
330
17
100
AcDbEntity
  8
TEXT
100
AcDbText
 10
210000.0
 20
-56400.0
 30
0.0
 40
400.0
  1
  d=9.50m  DWT=33,000t
 11
210000.0
 21
-56400.0
 31
0.0
100
AcDbText
  0
TEXT
  5
1A0
330
17
100
AcDbEntity
  8
TEXT
100
AcDbText
 10
210000.0
 20
-57100.0
 30
0.0
 40
400.0
  1
  Cargo Tanks: 20 (CO) + 2 (SLOP) = 22 tanks
 11
210000.0
 21
-57100.0
 31
0.0
100
AcDbText
  0
TEXT
  5
1A1
330
17
100
AcDbEntity
  8
TEXT
100
AcDbText
 10
210000.0
 20
-57800.0
 30
0.0
 40
400.0
  1
  Pump Systems: 22 independent sets
 11
210000.0
 21
-57800.0
 31
0.0
100
AcDbText
  0
TEXT
  5
1A2
330
17
100
AcDbEntity
  8
TEXT
100
AcDbText
 10
210000.0
 20
-58500.0
 30
0.0
 40
400.0
  1
  Max Loading Rate: 2,400 m3/h (6 pumps x 400 m3/h)
 11
210000.0
 21
-58500.0
 31
0.0
100
AcDbText
  0
ENDSEC
  0
SECTION
  2
OBJECTS
  0
DICTIONARY
  5
A
330
0
100
AcDbDictionary
281
1
  3
ACAD_COLOR
350
B
  3
ACAD_GROUP
350
C
  3
ACAD_LAYOUT
350
D
  3
ACAD_MATERIAL
350
E
  3
ACAD_MLEADERSTYLE
350
F
  3
ACAD_MLINESTYLE
350
10
  3
ACAD_PLOTSETTINGS
350
11
  3
ACAD_PLOTSTYLENAME
350
12
  3
ACAD_SCALELIST
350
14
  3
ACAD_TABLESTYLE
350
15
  3
ACAD_VISUALSTYLE
350
16
  3
EZDXF_META
350
2D
  0
DICTIONARY
  5
B
330
A
100
AcDbDictionary
281
1
  0
DICTIONARY
  5
C
330
A
100
AcDbDictionary
281
1
  0
DICTIONARY
  5
D
330
A
100
AcDbDictionary
281
1
  3
Model
350
1A
  3
Layout1
350
1E
  0
DICTIONARY
  5
E
330
A
100
AcDbDictionary
281
1
  3
ByBlock
350
1F
  3
ByLayer
350
20
  3
Global
350
21
  0
DICTIONARY
  5
F
330
A
100
AcDbDictionary
281
1
  3
Standard
350
2C
  0
DICTIONARY
  5
10
330
A
100
AcDbDictionary
281
1
  3
Standard
350
22
  0
DICTIONARY
  5
11
330
A
100
AcDbDictionary
281
1
  0
ACDBDICTIONARYWDFLT
  5
12
330
A
100
AcDbDictionary
281
1
  3
Normal
350
13
100
AcDbDictionaryWithDefault
340
13
  0
ACDBPLACEHOLDER
  5
13
330
12
  0
DICTIONARY
  5
14
330
A
100
AcDbDictionary
281
1
  0
DICTIONARY
  5
15
330
A
100
AcDbDictionary
281
1
  0
DICTIONARY
  5
16
330
A
100
AcDbDictionary
281
1
  3
2dWireframe
350
5A
  3
Basic
350
5B
  3
Brighten
350
5C
  3
ColorChange
350
5D
  3
Conceptual
350
5E
  3
Dim
350
5F
  3
EdgeColorOff
350
60
  3
Facepattern
350
61
  3
Flat
350
62
  3
FlatWithEdges
350
63
  3
Gouraud
350
64
  3
GouraudWithEdges
350
65
  3
Hidden
350
66
  3
JitterOff
350
67
  3
Linepattern
350
68
  3
Modeling
350
69
  3
OverhangOff
350
6A
  3
Realistic
350
6B
  3
Shaded
350
6C
  3
Shaded with edges
350
6D
  3
Shades of Gray
350
6E
  3
Sketchy
350
6F
  3
Thicken
350
70
  3
Wireframe
350
71
  3
X-Ray
350
72
  0
LAYOUT
  5
1A
330
D
100
AcDbPlotSettings
  1

  4
A3
  6

 40
7.5
 41
20.0
 42
7.5
 43
20.0
 44
420.0
 45
297.0
 46
0.0
 47
0.0
 48
0.0
 49
0.0
140
0.0
141
0.0
142
1.0
143
1.0
 70
1024
 72
1
 73
0
 74
5
  7

 75
16
 76
0
 77
2
 78
300
147
1.0
148
0.0
149
0.0
100
AcDbLayout
  1
Model
 70
1
 71
0
 10
0.0
 20
0.0
 11
420.0
 21
297.0
 12
0.0
 22
0.0
 32
0.0
 14
1e+20
 24
1e+20
 34
1e+20
 15
-1e+20
 25
-1e+20
 35
-1e+20
146
0.0
 13
0.0
 23
0.0
 33
0.0
 16
1.0
 26
0.0
 36
0.0
 17
0.0
 27
1.0
 37
0.0
 76
1
330
17
  0
LAYOUT
  5
1E
330
D
100
AcDbPlotSettings
  1

  4
A3
  6

 40
7.5
 41
20.0
 42
7.5
 43
20.0
 44
420.0
 45
297.0
 46
0.0
 47
0.0
 48
0.0
 49
0.0
140
0.0
141
0.0
142
1.0
143
1.0
 70
0
 72
1
 73
0
 74
5
  7

 75
16
 76
0
 77
2
 78
300
147
1.0
148
0.0
149
0.0
100
AcDbLayout
  1
Layout1
 70
1
 71
1
 10
0.0
 20
0.0
 11
420.0
 21
297.0
 12
0.0
 22
0.0
 32
0.0
 14
1e+20
 24
1e+20
 34
1e+20
 15
-1e+20
 25
-1e+20
 35
-1e+20
146
0.0
 13
0.0
 23
0.0
 33
0.0
 16
1.0
 26
0.0
 36
0.0
 17
0.0
 27
1.0
 37
0.0
 76
1
330
1B
  0
MATERIAL
  5
1F
102
{ACAD_REACTORS
330
E
102
}
330
E
100
AcDbMaterial
  1
ByBlock
  2

 70
0
 40
1.0
 71
1
 41
1.0
 91
-1023410177
 42
1.0
 72
1
  3

 73
1
 74
1
 75
1
 44
0.5
 73
0
 45
1.0
 46
1.0
 77
1
  4

 78
1
 79
1
170
1
 48
1.0
171
1
  6

172
1
173
1
174
1
140
1.0
141
1.0
175
1
  7

176
1
177
1
178
1
143
1.0
179
1
  8

270
1
271
1
272
1
145
1.0
146
1.0
273
1
  9

274
1
275
1
276
1
 42
1.0
 72
1
  3

 73
1
 74
1
 75
1
 94
63
  0
MATERIAL
  5
20
102
{ACAD_REACTORS
330
E
102
}
330
E
100
AcDbMaterial
  1
ByLayer
  2

 70
0
 40
1.0
 71
1
 41
1.0
 91
-1023410177
 42
1.0
 72
1
  3

 73
1
 74
1
 75
1
 44
0.5
 73
0
 45
1.0
 46
1.0
 77
1
  4

 78
1
 79
1
170
1
 48
1.0
171
1
  6

172
1
173
1
174
1
140
1.0
141
1.0
175
1
  7

176
1
177
1
178
1
143
1.0
179
1
  8

270
1
271
1
272
1
145
1.0
146
1.0
273
1
  9

274
1
275
1
276
1
 42
1.0
 72
1
  3

 73
1
 74
1
 75
1
 94
63
  0
MATERIAL
  5
21
102
{ACAD_REACTORS
330
E
102
}
330
E
100
AcDbMaterial
  1
Global
  2

 70
0
 40
1.0
 71
1
 41
1.0
 91
-1023410177
 42
1.0
 72
1
  3

 73
1
 74
1
 75
1
 44
0.5
 73
0
 45
1.0
 46
1.0
 77
1
  4

 78
1
 79
1
170
1
 48
1.0
171
1
  6

172
1
173
1
174
1
140
1.0
141
1.0
175
1
  7

176
1
177
1
178
1
143
1.0
179
1
  8

270
1
271
1
272
1
145
1.0
146
1.0
273
1
  9

274
1
275
1
276
1
 42
1.0
 72
1
  3

 73
1
 74
1
 75
1
 94
63
  0
MLINESTYLE
  5
22
102
{ACAD_REACTORS
330
10
102
}
330
10
100
AcDbMlineStyle
  2
Standard
 70
0
  3

 62
256
 51
90.0
 52
90.0
 71
2
 49
0.5
 62
256
  6
BYLAYER
 49
-0.5
 62
256
  6
BYLAYER
  0
MLEADERSTYLE
  5
2C
102
{ACAD_REACTORS
330
F
102
}
330
F
100
AcDbMLeaderStyle
179
2
170
2
171
1
172
0
 90
2
 40
0.0
 41
0.0
173
1
 91
-1056964608
 92
-2
290
1
 42
2.0
291
1
 43
8.0
  3
Standard
 44
4.0
300

342
29
174
1
175
1
176
0
178
1
 93
-1056964608
 45
4.0
292
0
297
0
 46
4.0
 94
-1056964608
 47
1.0
 49
1.0
140
1.0
294
1
141
0.0
177
0
142
1.0
295
0
296
0
143
3.75
271
0
272
9
273
9
  0
DICTIONARY
  5
2D
330
A
100
AcDbDictionary
280
1
281
1
  3
CREATED_BY_EZDXF
350
2E
  3
WRITTEN_BY_EZDXF
350
1A5
  0
DICTIONARYVAR
  5
2E
330
2D
100
DictionaryVariables
280
0
  1
1.4.4 @ 2026-06-06T15:32:30.471003+00:00
  0
VISUALSTYLE
  5
5A
102
{ACAD_REACTORS
330
16
102
}
330
16
100
AcDbVisualStyle
  2
2dWireframe
 70
4
 90
0
 40
0.6
 62
7
290
0
291
0
  0
VISUALSTYLE
  5
5B
102
{ACAD_REACTORS
330
16
102
}
330
16
100
AcDbVisualStyle
  2
Basic
 70
7
 90
1
 40
0.6
 62
7
290
0
291
1
  0
VISUALSTYLE
  5
5C
102
{ACAD_REACTORS
330
16
102
}
330
16
100
AcDbVisualStyle
  2
Brighten
 70
12
 90
2
 40
0.6
 62
7
290
0
291
1
  0
VISUALSTYLE
  5
5D
102
{ACAD_REACTORS
330
16
102
}
330
16
100
AcDbVisualStyle
  2
ColorChange
 70
16
 90
2
 40
0.6
 62
8
290
0
291
1
  0
VISUALSTYLE
  5
5E
102
{ACAD_REACTORS
330
16
102
}
330
16
100
AcDbVisualStyle
  2
Conceptual
 70
9
 90
3
 40
0.6
 62
7
290
0
291
0
  0
VISUALSTYLE
  5
5F
102
{ACAD_REACTORS
330
16
102
}
330
16
100
AcDbVisualStyle
  2
Dim
 70
11
 90
2
 40
0.6
 62
7
290
0
291
1
  0
VISUALSTYLE
  5
60
102
{ACAD_REACTORS
330
16
102
}
330
16
100
AcDbVisualStyle
  2
EdgeColorOff
 70
22
 90
2
 40
0.6
 62
7
290
0
291
1
  0
VISUALSTYLE
  5
61
102
{ACAD_REACTORS
330
16
102
}
330
16
100
AcDbVisualStyle
  2
Facepattern
 70
15
 90
2
 40
0.6
 62
7
290
0
291
1
  0
VISUALSTYLE
  5
62
102
{ACAD_REACTORS
330
16
102
}
330
16
100
AcDbVisualStyle
  2
Flat
 70
0
 90
2
 40
0.6
 62
7
290
0
291
1
  0
VISUALSTYLE
  5
63
102
{ACAD_REACTORS
330
16
102
}
330
16
100
AcDbVisualStyle
  2
FlatWithEdges
 70
1
 90
2
 40
0.6
 62
7
290
0
291
1
  0
VISUALSTYLE
  5
64
102
{ACAD_REACTORS
330
16
102
}
330
16
100
AcDbVisualStyle
  2
Gouraud
 70
2
 90
2
 40
0.6
 62
7
290
0
291
1
  0
VISUALSTYLE
  5
65
102
{ACAD_REACTORS
330
16
102
}
330
16
100
AcDbVisualStyle
  2
GouraudWithEdges
 70
3
 90
2
 40
0.6
 62
7
290
0
291
1
  0
VISUALSTYLE
  5
66
102
{ACAD_REACTORS
330
16
102
}
330
16
100
AcDbVisualStyle
  2
Hidden
 70
6
 90
1
 40
0.6
 62
7
290
0
291
0
  0
VISUALSTYLE
  5
67
102
{ACAD_REACTORS
330
16
102
}
330
16
100
AcDbVisualStyle
  2
JitterOff
 70
20
 90
2
 40
0.6
 62
7
290
0
291
1
  0
VISUALSTYLE
  5
68
102
{ACAD_REACTORS
330
16
102
}
330
16
100
AcDbVisualStyle
  2
Linepattern
 70
14
 90
2
 40
0.6
 62
7
290
0
291
1
  0
VISUALSTYLE
  5
69
102
{ACAD_REACTORS
330
16
102
}
330
16
100
AcDbVisualStyle
  2
Modeling
 70
10
 90
2
 40
0.6
 62
7
290
0
291
0
  0
VISUALSTYLE
  5
6A
102
{ACAD_REACTORS
330
16
102
}
330
16
100
AcDbVisualStyle
  2
OverhangOff
 70
21
 90
2
 40
0.6
 62
7
290
0
291
1
  0
VISUALSTYLE
  5
6B
102
{ACAD_REACTORS
330
16
102
}
330
16
100
AcDbVisualStyle
  2
Realistic
 70
8
 90
2
 40
0.6
 62
7
290
0
291
0
  0
VISUALSTYLE
  5
6C
102
{ACAD_REACTORS
330
16
102
}
330
16
100
AcDbVisualStyle
  2
Shaded
 70
27
 90
2
 40
0.6
 62
7
290
0
291
0
  0
VISUALSTYLE
  5
6D
102
{ACAD_REACTORS
330
16
102
}
330
16
100
AcDbVisualStyle
  2
Shaded with edges
 70
26
 90
2
 40
0.6
 62
7
290
0
291
0
  0
VISUALSTYLE
  5
6E
102
{ACAD_REACTORS
330
16
102
}
330
16
100
AcDbVisualStyle
  2
Shades of Gray
 70
23
 90
2
 40
0.6
 62
7
290
0
291
0
  0
VISUALSTYLE
  5
6F
102
{ACAD_REACTORS
330
16
102
}
330
16
100
AcDbVisualStyle
  2
Sketchy
 70
24
 90
1
 40
0.6
 62
7
290
0
291
0
  0
VISUALSTYLE
  5
70
102
{ACAD_REACTORS
330
16
102
}
330
16
100
AcDbVisualStyle
  2
Thicken
 70
13
 90
2
 40
0.6
 62
7
290
0
291
1
  0
VISUALSTYLE
  5
71
102
{ACAD_REACTORS
330
16
102
}
330
16
100
AcDbVisualStyle
  2
Wireframe
 70
5
 90
0
 40
0.6
 62
7
290
0
291
0
  0
VISUALSTYLE
  5
72
102
{ACAD_REACTORS
330
16
102
}
330
16
100
AcDbVisualStyle
  2
X-Ray
 70
25
 90
2
 40
0.5
 62
7
290
0
291
0
  0
DICTIONARYVAR
  5
1A5
330
2D
100
DictionaryVariables
280
0
  1
1.4.4 @ 2026-06-06T15:32:30.475877+00:00
  0
ENDSEC
  0
EOF
